<?xml version="1.0" encoding="UTF-8"?>
<svg id="_Слой_2" data-name="Слой_2" xmlns="http://www.w3.org/2000/svg" viewBox="0 0 683.26 71.67">
  <defs>
    <style>
      .cls-1 {
        stroke: #ccc;
        stroke-miterlimit: 10;
        stroke-width: 5px;
      }

      .cls-2 {
        fill: #ccc;
      }

      .cls-3 {
        fill: #e6e6e6;
      }
    </style>
  </defs>
  <g id="_Слой_6" data-name="Слой_6">
    <polygon class="cls-1" points="679.17 35.32 638.66 66.54 635.26 69.17 48 69.17 45.48 67.22 4.1 35.32 46.68 2.5 636.58 2.5 638.66 4.1 679.17 35.32"/>
    <g>
      <polygon class="cls-3" points="37.12 22.43 24.26 35.29 36.66 47.69 39.52 44.83 38.05 43.36 36.92 43.36 28.79 35.23 37.38 26.64 43.84 33.1 46.54 30.41 37.12 22.43"/>
      <polygon class="cls-3" points="37.84 30.22 33.03 35.03 41.8 43.8 43.72 41.87 36.9 35.05 39.76 32.19 37.84 30.22"/>
      <polygon class="cls-3" points="42.26 37.01 44.49 39.24 53.6 30.12 42.98 19.5 50.79 11.69 49.42 9.26 39.81 19.36 48.84 29.88 42.26 37.01"/>
      <polygon class="cls-3" points="47.88 19.93 49.8 22.43 56.1 16.33 54.03 13.88 47.88 19.93"/>
      <polygon class="cls-3" points="51.2 36.04 38.38 51.7 47.26 61.46 49.28 59.06 42.69 52.04 54.37 38.29 51.2 36.04"/>
      <polygon class="cls-3" points="48.75 47.95 46.54 50.64 51.44 56.6 53.6 53.72 48.75 47.95"/>
    </g>
    <g>
      <polygon class="cls-3" points="645.62 49.94 658.47 37.08 646.07 24.68 643.21 27.54 644.68 29.01 645.81 29.01 653.94 37.14 645.35 45.73 638.89 39.27 636.2 41.96 645.62 49.94"/>
      <polygon class="cls-3" points="644.9 42.15 649.7 37.34 640.93 28.57 639.01 30.5 645.83 37.32 642.97 40.18 644.9 42.15"/>
      <polygon class="cls-3" points="640.47 35.36 638.25 33.13 629.13 42.25 639.75 52.87 631.94 60.68 633.31 63.1 642.93 53.01 633.89 42.49 640.47 35.36"/>
      <polygon class="cls-3" points="634.85 52.44 632.93 49.94 626.63 56.04 628.7 58.49 634.85 52.44"/>
      <polygon class="cls-3" points="631.53 36.33 644.36 20.67 635.48 10.91 633.46 13.31 640.04 20.33 628.36 34.08 631.53 36.33"/>
      <polygon class="cls-3" points="633.99 24.42 636.2 21.72 631.29 15.76 629.13 18.65 633.99 24.42"/>
    </g>
  </g>
  <g id="_Слой_10" data-name="Слой_10">
    <g>
      <path class="cls-2" d="M301.39,50.09v11.72c-.29.08-.5.16-.62.23l-.41.23c-.2.12-.67.25-1.44.41v-9.64c-5.92,2.56-10.59,3.84-14,3.84-.66,0-1.14-.02-1.44-.06-5.23-.72-9.13-2.69-11.69-5.89-1.95-2.44-3.46-6.24-4.51-11.4-.2-1-.29-2.04-.29-3.13,0-3.16.74-6.64,2.23-10.43,1.27-3.16,2.41-5.24,3.43-6.24,1.07-1.07,2.89-2.16,5.45-3.25,3.01-1.23,5.73-1.85,8.17-1.85,1.62,0,4.64,1.74,9.05,5.21.68.53,1.14.87,1.38,1.03,1.91-3.24,3.12-4.86,3.6-4.86.16,0,.43.12.82.35.04,0,.19.06.44.18-.12.49-.5,1.37-1.14,2.64-2.93,5.98-4.39,9.58-4.39,10.81,0,.12.51.18,1.52.18,1.23,0,3.01-.18,5.33-.53,0,.31-.24,3.75-.73,10.31-.51,6.6-.76,9.98-.76,10.14ZM281.76,18.89c-1.64.04-3.36,1.22-5.16,3.54-1.88,2.4-2.81,4.79-2.81,7.15.12.76.35,1.24.7,1.44.27.16.85.23,1.73.23,9.34,0,15.26-.28,17.78-.85-.8-2.07-2.46-4.42-4.98-7.06-2.77-2.97-5.16-4.45-7.15-4.45h-.12ZM293.78,35.65c-13.24,0-19.9.65-19.98,1.96.96,4.45,2.99,7.98,6.09,10.58,3.09,2.52,6.75,3.78,10.99,3.78,2.81,0,5.43-.55,7.85-1.64.14-.47.28-2.74.44-6.83.04-2.17.12-4.77.23-7.79-.12,0-.82-.02-2.11-.06h-3.52Z"/>
      <path class="cls-2" d="M342.78,56.89c-.76-.29-1.46-.6-2.08-.91-1.56-.76-2.74-1.56-3.54-2.4-1.84-1.88-3.54-4.47-5.1-7.79-.45-.96-.89-1.92-1.32-2.9-.64-1.19-1.23-2.05-1.76-2.58-.47.45-1.31,1.91-2.52,4.39-1.48,2.95-2.3,4.57-2.46,4.86-1.64,2.68-2.86,4.49-3.66,5.45-1.31,1.48-2.57,2.23-3.78,2.23-.68,0-1.5-.34-2.46-1.03-1.04-.72-1.55-1.41-1.55-2.05,0-.55,1.06-1.03,3.19-1.44.51-.12.91-.21,1.2-.29.51-.2,1.5-1.11,2.99-2.75,1.41-1.6,2.3-2.76,2.7-3.49.76-1.27,1.81-3.09,3.14-5.45.96-1.68,1.45-2.96,1.49-3.84-2.48-4.73-5.28-9.95-8.41-15.67-.76-1.19-1.74-1.79-2.93-1.79h-.79c-.68,0-1.12-.3-1.32-.91,0-.57.21-1.03.62-1.38.04-.04.46-.32,1.26-.85.88-.55,1.49-1.04,1.85-1.49.16-.2.46-.42.91-.67.39-.08.66-.12.82-.12,2.17,0,4.61,2.63,7.32,7.88.64,1.27,1.52,3.05,2.64,5.33.8,1.52,1.35,2.3,1.64,2.34.19-.04,1.17-1.6,2.93-4.69.53-.88,1.33-2.22,2.4-4.01.8-1.41,1.54-2.53,2.23-3.37,1.42-1.88,2.61-2.81,3.54-2.81.47,0,.99.18,1.55.53.6.41.91.83.91,1.26,0,.61-1.04,1.61-3.13,3.02-5.84,7.11-8.76,11.48-8.76,13.12,0,.68,1.24,3.22,3.72,7.62,2.6,4.53,4.52,7.45,5.77,8.76,1.42,1.48,2.5,2.3,3.22,2.46.16,0,.5-.04,1.03-.12s.91-.12,1.14-.12c.72,0,1.08.38,1.08,1.14-2.4,3.01-4.31,4.51-5.71,4.51Z"/>
      <path class="cls-2" d="M378.02,56.33c-3.36-.61-5.42-.91-6.18-.91h-3.54l-14.82,1.46v-2.05c2.07-.12,3.73-.25,4.98-.41,1.88-.25,3.12-.76,3.72-1.52.64-.74.97-2.16.97-4.25v-22.09l-.73-5.74c-.27-1-.65-1.76-1.14-2.29-.27-.12-2.03-.25-5.27-.41-3.12-.18-4.69-.63-4.69-1.38,0-.29.17-.63.5-1.03.35-.37.66-.58.94-.62,1.72.25,4.8.62,9.26,1.08,1.04.08,2.13.12,3.28.12,3.09,0,4.77-.5,5.04-1.49.04-.27.11-.67.21-1.2.04-.57.44-.91,1.2-1.03.62,0,.94.61.94,1.82,0,.92.22,1.38.67,1.38s1.29-.17,2.58-.5h1.49v1.26c0,.8-.68,1.2-2.05,1.2h-.94c-1.25,0-1.88.34-1.88,1.03v33.6c0,.72.99,1.18,2.96,1.38,2.34.23,3.52.75,3.52,1.55,0,.68-.33,1.03-1,1.03ZM370.2,18.48c-.66.35-1.22.75-1.67,1.2v32.81c0,.27.56.46,1.67.56V18.48Z"/>
      <path class="cls-2" d="M420.64,18.24c-.92.72-1.84,1.26-2.75,1.61-1.88.68-4.27,1.03-7.18,1.03s-4.59.23-4.75.7v30.12c0,1.13,1.44,1.72,4.31,1.76.8,0,1.88.02,3.25.06,1.11.12,1.67.5,1.67,1.14,0,.31-.12.65-.35,1.03-5-.12-9.46-.18-13.39-.18-1.91,0-3.96.23-6.12.7-2.15.49-3.43.73-3.84.73-1.07,0-1.61-.7-1.61-2.11l9.11-1.55c.64-.45.97-3.25.97-8.41l-.06-17.46c-.04-2.75-.21-4.61-.5-5.57-.23-.84-.83-1.26-1.79-1.26h-2.17s-.44-.02-1.2-.06h-2.14c-3.73,0-6.02.25-6.86.76-.88.57-1.32,1.48-1.32,2.75v1.64c-1.45,0-2.17-.82-2.17-2.46,0-1.45.4-2.87,1.2-4.28,1.09-1.91,3.52-2.87,7.27-2.87,1.21,0,4.39.1,9.55.29,5.16.25,9.05.38,11.69.38,5.49,0,8.23-.36,8.23-1.08,0-.18-.17-.48-.5-.91-.31-.49-.47-.85-.47-1.08s.1-.45.29-.64c1.45-1.13,2.45-1.7,3.02-1.7.51,0,.93.26,1.26.79.31.47.47.97.47,1.49,0,1.37-1.04,2.91-3.13,4.63Z"/>
    </g>
  </g>
</svg>