<?xml version="1.0" encoding="UTF-8"?>
<svg id="_Слой_2" data-name="Слой_2" xmlns="http://www.w3.org/2000/svg" viewBox="0 0 683.26 71.67">
  <defs>
    <style>
      .cls-1 {
        stroke: #ccc;
        stroke-miterlimit: 10;
        stroke-width: 5px;
      }

      .cls-2 {
        fill: #ccc;
      }

      .cls-3 {
        fill: #e6e6e6;
      }
    </style>
  </defs>
  <g id="_Слой_6" data-name="Слой_6">
    <polygon class="cls-1" points="679.17 35.32 638.66 66.54 635.26 69.17 48 69.17 45.48 67.22 4.1 35.32 46.68 2.5 636.58 2.5 638.66 4.1 679.17 35.32"/>
    <g>
      <polygon class="cls-3" points="37.12 22.43 24.26 35.29 36.66 47.69 39.52 44.83 38.05 43.36 36.92 43.36 28.79 35.23 37.38 26.64 43.84 33.1 46.54 30.41 37.12 22.43"/>
      <polygon class="cls-3" points="37.84 30.22 33.03 35.03 41.8 43.8 43.72 41.87 36.9 35.05 39.76 32.19 37.84 30.22"/>
      <polygon class="cls-3" points="42.26 37.01 44.49 39.24 53.6 30.12 42.98 19.5 50.79 11.69 49.42 9.26 39.81 19.36 48.84 29.88 42.26 37.01"/>
      <polygon class="cls-3" points="47.88 19.93 49.8 22.43 56.1 16.33 54.03 13.88 47.88 19.93"/>
      <polygon class="cls-3" points="51.2 36.04 38.38 51.7 47.26 61.46 49.28 59.06 42.69 52.04 54.37 38.29 51.2 36.04"/>
      <polygon class="cls-3" points="48.75 47.95 46.54 50.64 51.44 56.6 53.6 53.72 48.75 47.95"/>
    </g>
    <g>
      <polygon class="cls-3" points="645.62 49.94 658.47 37.08 646.07 24.68 643.21 27.54 644.68 29.01 645.81 29.01 653.94 37.14 645.35 45.73 638.89 39.27 636.2 41.96 645.62 49.94"/>
      <polygon class="cls-3" points="644.9 42.15 649.7 37.34 640.93 28.57 639.01 30.5 645.83 37.32 642.97 40.18 644.9 42.15"/>
      <polygon class="cls-3" points="640.47 35.36 638.25 33.13 629.13 42.25 639.75 52.87 631.94 60.68 633.31 63.1 642.93 53.01 633.89 42.49 640.47 35.36"/>
      <polygon class="cls-3" points="634.85 52.44 632.93 49.94 626.63 56.04 628.7 58.49 634.85 52.44"/>
      <polygon class="cls-3" points="631.53 36.33 644.36 20.67 635.48 10.91 633.46 13.31 640.04 20.33 628.36 34.08 631.53 36.33"/>
      <polygon class="cls-3" points="633.99 24.42 636.2 21.72 631.29 15.76 629.13 18.65 633.99 24.42"/>
    </g>
  </g>
  <g id="Text">
    <g>
      <path class="cls-2" d="M292.1,54.8c-6.43,0-11.45-1.83-15.07-5.49-3.62-3.66-5.43-8.68-5.43-15.04s2.24-11.49,6.71-15.26c3.85-3.28,8.42-4.92,13.71-4.92,3.67,0,8.09,1.52,13.24,4.57-1.35,1.8-3.16,3.09-5.45,3.87-3.67-2.66-8.54-3.98-14.62-3.98-3.09,0-5.23,1.62-6.45,4.86-.37,1.07-.69,3.2-.97,6.39h17.31c-.16,1.72-1.01,3.2-2.55,4.45l-15-.76c0,5.08,1.82,8.98,5.45,11.72,3.07,2.3,7.34,3.46,12.83,3.46,3.18,0,6.05-.44,8.61-1.32l.82.12c-1.11,3.32-3.01,5.65-5.68,7-2.38.23-4.87.35-7.47.35Z"/>
      <path class="cls-2" d="M355.89,54.68c-8.36,0-14.22-3.98-17.58-11.95-3.2,7.89-7.25,11.84-12.13,11.84-2.07,0-4.53-.44-7.38-1.32.25-2.52,1.76-4.44,4.51-5.77,1.56.96,3.41,1.44,5.54,1.44,2.5,0,4.45-1.27,5.86-3.81s2.11-5.99,2.11-10.34c0-4.61-1.38-8.33-4.13-11.18s-6.19-4.26-10.31-4.26c-.88,0-1.91.1-3.11.29.84-2.19,2.47-3.98,4.89-5.39,8.57,0,14.37,3.62,17.37,10.87,3.53-7.34,8.02-11.02,13.45-11.02,1.88,0,4.08.63,6.62,1.9-1.19,2.13-2.9,3.68-5.13,4.66-1.5-.96-2.99-1.44-4.45-1.44-2.95,0-5.24,1.37-6.88,4.12s-2.46,5.82-2.46,9.21c0,4.14,1.11,7.87,3.33,11.18,2.22,3.31,4.98,4.97,8.28,4.97,2.07,0,4.15-.2,6.24-.59-.64,3.03-2.19,5.22-4.63,6.59Z"/>
      <path class="cls-2" d="M385.59,54.57l-7.35-.23c.19-3.4.29-6.8.29-10.2v-19.75c0-3.4-.1-6.8-.29-10.2h7.29c-.2,3.42-.29,6.85-.29,10.28l.03,19.8c0,3.42.11,6.85.32,10.28Z"/>
      <path class="cls-2" d="M428.91,54.68c-7.09,0-12.41-1.58-15.97-4.75-3.77-3.28-5.65-7.71-5.65-13.27,0-3.32.93-6.4,2.8-9.24,1.86-2.84,4.39-5.44,7.57-7.81-2.58-.27-4.8-.41-6.68-.41-3.26,0-6.11.83-8.55,2.49.72-1.84,1.97-3.62,3.74-5.35,1.77-1.73,3.8-2.59,6.11-2.59,2.75,0,5.95.17,9.59.51,3.64.34,6.59.51,8.83.51,1.88,0,4.37-.14,7.47-.41-1.89,4.02-5.51,6.04-10.84,6.04-1.86,0-3.64-.12-5.36-.35-2.58,1.5-4.58,3.54-6.02,6.12s-2.15,5.43-2.15,8.55c0,4.57,1.68,8.1,5.04,10.58,3.16,2.36,7.12,3.54,11.87,3.54,2.66,0,4.86-.3,6.62-.91-1.66,4.49-4.46,6.74-8.41,6.74Z"/>
    </g>
  </g>
</svg>