<?xml version="1.0" encoding="UTF-8"?>
<svg id="_Слой_2" data-name="Слой_2" xmlns="http://www.w3.org/2000/svg" viewBox="0 0 683.26 71.67">
  <defs>
    <style>
      .cls-1 {
        stroke: #ccc;
        stroke-miterlimit: 10;
        stroke-width: 5px;
      }

      .cls-2 {
        fill: #ccc;
      }

      .cls-3 {
        fill: #e6e6e6;
      }
    </style>
  </defs>
  <g id="_Слой_6" data-name="Слой_6">
    <polygon class="cls-1" points="679.17 35.32 638.66 66.54 635.26 69.17 48 69.17 45.48 67.22 4.1 35.32 46.68 2.5 636.58 2.5 638.66 4.1 679.17 35.32"/>
    <g>
      <polygon class="cls-3" points="37.12 22.43 24.26 35.29 36.66 47.69 39.52 44.83 38.05 43.36 36.92 43.36 28.79 35.23 37.38 26.64 43.84 33.1 46.54 30.41 37.12 22.43"/>
      <polygon class="cls-3" points="37.84 30.22 33.03 35.03 41.8 43.8 43.72 41.87 36.9 35.05 39.76 32.19 37.84 30.22"/>
      <polygon class="cls-3" points="42.26 37.01 44.49 39.24 53.6 30.12 42.98 19.5 50.79 11.69 49.42 9.26 39.81 19.36 48.84 29.88 42.26 37.01"/>
      <polygon class="cls-3" points="47.88 19.93 49.8 22.43 56.1 16.33 54.03 13.88 47.88 19.93"/>
      <polygon class="cls-3" points="51.2 36.04 38.38 51.7 47.26 61.46 49.28 59.06 42.69 52.04 54.37 38.29 51.2 36.04"/>
      <polygon class="cls-3" points="48.75 47.95 46.54 50.64 51.44 56.6 53.6 53.72 48.75 47.95"/>
    </g>
    <g>
      <polygon class="cls-3" points="645.62 49.94 658.47 37.08 646.07 24.68 643.21 27.54 644.68 29.01 645.81 29.01 653.94 37.14 645.35 45.73 638.89 39.27 636.2 41.96 645.62 49.94"/>
      <polygon class="cls-3" points="644.9 42.15 649.7 37.34 640.93 28.57 639.01 30.5 645.83 37.32 642.97 40.18 644.9 42.15"/>
      <polygon class="cls-3" points="640.47 35.36 638.25 33.13 629.13 42.25 639.75 52.87 631.94 60.68 633.31 63.1 642.93 53.01 633.89 42.49 640.47 35.36"/>
      <polygon class="cls-3" points="634.85 52.44 632.93 49.94 626.63 56.04 628.7 58.49 634.85 52.44"/>
      <polygon class="cls-3" points="631.53 36.33 644.36 20.67 635.48 10.91 633.46 13.31 640.04 20.33 628.36 34.08 631.53 36.33"/>
      <polygon class="cls-3" points="633.99 24.42 636.2 21.72 631.29 15.76 629.13 18.65 633.99 24.42"/>
    </g>
  </g>
  <g id="_Слой_10" data-name="Слой_10">
    <g>
      <path class="cls-2" d="M291.21,45.67h-3.19l-5.57-1.11c-.41.16-.62.47-.62.94v5.16c0,.98.24,1.46.73,1.46h7.38c2.56,0,5.21.23,7.97.7,2.68.49,4.01.93,4.01,1.32,0,.68-.35,1.06-1.05,1.14l-7.62-.85h-15.21c-.8,0-2.2.15-4.19.44-1.99.27-3.5.41-4.51.41-.66,0-1.08-.06-1.26-.18-.23-.16-.35-.54-.35-1.14,0-.68.72-1.06,2.17-1.14.88,0,2.31-.08,4.31-.23,1.13-.16,1.7-2.04,1.7-5.65v-12.77c0-.72-.24-3.06-.73-7-.53-4.57-.97-7.33-1.32-8.29-.16-.41-1.42-.83-3.78-1.26-1.15-.19-2.01-.37-2.58-.53-.88-.25-1.32-.58-1.32-.97,0-.76.44-1.14,1.32-1.14,5.76,1.15,9.54,1.73,11.34,1.73.39,0,.93-.23,1.61-.7.45-.33,1.15-.88,2.11-1.64,2.21-1.68,4.46-2.52,6.77-2.52h3.66c3.09,0,6.04,1.33,8.88,3.98,3.09,2.87,4.63,6.21,4.63,10.02v4.07c0,3.12-1.58,6.46-4.75,10.02-3.4,3.83-6.91,5.74-10.55,5.74ZM287.49,15.44c-1.91,0-3.46.64-4.63,1.93-.88.96-1.32,1.84-1.32,2.64v11.63c0,3.4.32,5.66.97,6.8.68.8,2.52,1.7,5.51,2.7,2.73.92,4.54,1.38,5.42,1.38,2.07,0,3.79-1.78,5.16-5.33,1-2.73,1.49-5.21,1.49-7.44,0-4.12-1.1-7.5-3.31-10.14-2.3-2.77-5.4-4.16-9.29-4.16Z"/>
      <path class="cls-2" d="M350.06,62.84c0-1.41.03-2.82.09-4.25v-2.52c0-1.09-.17-1.78-.5-2.05-.23-.08-.85-.12-1.85-.12h-1.99c-.88.04-1.54.06-1.99.06h-14.62l-5.36.41c-.74.08-2.54.21-5.39.38-1.52.08-2.34.12-2.46.12-1.27,0-1.99-.21-2.17-.62-.08-.31-.12-.53-.12-.64,0-.64.46-1.04,1.38-1.2.33-.04,1.2-.1,2.61-.18,1.15-.04,1.94-.13,2.37-.26.8-.19,1.27-.57,1.41-1.11V15.99c-.25-.33-.76-.58-1.52-.73-.8-.16-2.28-.46-4.42-.91-.53-.12-1.25-.25-2.17-.41-.76-.23-1.14-.56-1.14-.97,0-.19.19-.49.56-.88.23-.21.59-.32,1.05-.32.1,0,1.41.21,3.93.62,2.44.39,4.98.59,7.62.59s4.79-.14,6.83-.41c2.05-.31,3.12-.47,3.19-.47.55,0,1.08.2,1.61.59.35.27.53.58.53.91,0,.84-.92,1.32-2.75,1.44h-.97c-1.11,0-2.53.04-4.25.12-.49.08-.77.32-.85.73l-.06,29.85c0,2.44.21,4.13.62,5.07.19.43.75.64,1.67.64.27,0,1.19-.08,2.75-.23,7.89-.8,12.71-1.83,14.47-3.08.12-.08.35-.29.7-.64l.26-.29c.51-.64,1.58-1.04,3.22-1.2v16.85h-2.29Z"/>
      <path class="cls-2" d="M364.18,36.39c.84-3.63,2.6-10.41,5.27-20.33-.04-.37-.59-.63-1.64-.79-2.03-.16-4.09-.29-6.18-.41-2.79-.45-4.19-1.37-4.19-2.75,4.73.27,10.68.55,17.87.82,2.44,0,5.22-.18,8.35-.53,3.12-.37,4.97-.56,5.54-.56,1.43,0,2.34.51,2.75,1.52-.72.51-1.81.86-3.25,1.05-.8.14-1.24.22-1.32.26-.27.16-.41.58-.41,1.26,0,1.84.48,5.27,1.44,10.31.92,4.59,1.51,7.21,1.79,7.85l.06.29c.57,3.09,1.13,6.17,1.7,9.26.92,4.47,1.78,6.99,2.58,7.56.23.16.77.25,1.61.29.8,0,1.38.12,1.73.35.57.37.85,1.09.85,2.17-.96.19-1.68.29-2.17.29l-2.08-.29c-1.45-.16-3.45-.23-6.01-.23-1.84,0-3.34.08-4.51.23l-1.55.23c-.47-.47-.7-.91-.7-1.32,0-.55.71-.99,2.14-1.32,1.6-.39,2.57-.79,2.9-1.2-1.33-10.16-2.26-15.52-2.78-16.08-1.72.04-4.72.36-8.99.97-5,.68-7.73,1.29-8.2,1.82-.37,1.11-.81,2.83-1.32,5.16-.76,3.52-1.14,6.42-1.14,8.7.08.8.41,1.2,1,1.2.18,0,.58-.04,1.2-.12.6-.1,1.17-.15,1.7-.15.55.18.82.94.82,2.29-.47.08-4.48.36-12.04.85-.04-.68-.06-1.29-.06-1.82,0-.59.14-.88.41-.88l.29.06.18.12c.18.08.34.12.5.12.31,0,.69-.16,1.14-.47.35-.25,1.79-5.29,4.31-15.12.12-.45.26-.67.44-.67ZM379.76,15.44h-1.32c-.61,0-1.63.02-3.08.06-1.46.04-2.46.06-2.99.06-2.36,8.93-3.72,14.13-4.07,15.62.16.04.65.06,1.49.06,3.71,0,8.25-.28,13.62-.85-.04-2.03-.6-5.05-1.67-9.05-1.02-3.67-1.68-5.63-1.99-5.89Z"/>
      <path class="cls-2" d="M428.01,15.73c-.23.57-.63,1.49-1.2,2.78-1.88,4.63-4.11,9.08-6.71,13.36-1.41,2.29-2.11,4.55-2.11,6.8,0,1.99-.02,4.03-.06,6.12-.04,2.07-.06,3.25-.06,3.54,0,1.19.18,1.98.53,2.37.33.37.92.56,1.76.56.2,0,.55-.02,1.05-.06.57-.04,1.01-.06,1.32-.06.94,0,1.7.08,2.29.23.49.12.73.5.73,1.14s-.24,1.04-.73,1.2c-.55,0-1.43-.04-2.64-.12-1.15-.04-2.03-.06-2.64-.06-1.76,0-3.72.16-5.89.47-1.76.27-3.77.65-6.04,1.14-1.48.31-2.29.47-2.4.47-.33,0-.63-.14-.91-.41-.27-.35-.41-.67-.41-.97,0-.84,1.42-1.6,4.25-2.29l1.14-.23c.8-.19,1.26-.33,1.38-.41.8-.53,1.2-3.67,1.2-9.43,0-3.14-.04-4.86-.12-5.16-.37-1.35-1.44-3.35-3.19-6.01-2.48-3.75-4.79-7.72-6.94-11.92-.61-1.21-1.55-1.99-2.84-2.34-.62-.19-.98-.58-1.05-1.14,0-.43.9-1.13,2.7-2.11,1.84-.92,3.17-1.38,4.01-1.38.45.08,1.27,1.24,2.46,3.49.88,1.64,2.1,4.02,3.66,7.15,3.4,6.72,5.38,10.2,5.95,10.43.27-.23,1.27-1.95,2.99-5.16,1.84-3.44,2.94-5.84,3.31-7.21.27-.96.59-3.06.94-6.3.18-1.31.88-1.96,2.11-1.96.37,0,1.31.1,2.81.29,0,1.11-.21,2.17-.64,3.16Z"/>
    </g>
  </g>
</svg>