<?xml version="1.0" encoding="UTF-8"?>
<svg id="_Слой_2" data-name="Слой_2" xmlns="http://www.w3.org/2000/svg" viewBox="0 0 683.26 71.67">
  <defs>
    <style>
      .cls-1 {
        stroke: #ccc;
        stroke-miterlimit: 10;
        stroke-width: 5px;
      }

      .cls-2 {
        fill: #ccc;
      }

      .cls-3 {
        fill: #e6e6e6;
      }
    </style>
  </defs>
  <g id="_Слой_6" data-name="Слой_6">
    <polygon class="cls-1" points="679.17 35.32 638.66 66.54 635.26 69.17 48 69.17 45.48 67.22 4.1 35.32 46.68 2.5 636.58 2.5 638.66 4.1 679.17 35.32"/>
    <g>
      <polygon class="cls-3" points="37.12 22.43 24.26 35.29 36.66 47.69 39.52 44.83 38.05 43.36 36.92 43.36 28.79 35.23 37.38 26.64 43.84 33.1 46.54 30.41 37.12 22.43"/>
      <polygon class="cls-3" points="37.84 30.22 33.03 35.03 41.8 43.8 43.72 41.87 36.9 35.05 39.76 32.19 37.84 30.22"/>
      <polygon class="cls-3" points="42.26 37.01 44.49 39.24 53.6 30.12 42.98 19.5 50.79 11.69 49.42 9.26 39.81 19.36 48.84 29.88 42.26 37.01"/>
      <polygon class="cls-3" points="47.88 19.93 49.8 22.43 56.1 16.33 54.03 13.88 47.88 19.93"/>
      <polygon class="cls-3" points="51.2 36.04 38.38 51.7 47.26 61.46 49.28 59.06 42.69 52.04 54.37 38.29 51.2 36.04"/>
      <polygon class="cls-3" points="48.75 47.95 46.54 50.64 51.44 56.6 53.6 53.72 48.75 47.95"/>
    </g>
    <g>
      <polygon class="cls-3" points="645.62 49.94 658.47 37.08 646.07 24.68 643.21 27.54 644.68 29.01 645.81 29.01 653.94 37.14 645.35 45.73 638.89 39.27 636.2 41.96 645.62 49.94"/>
      <polygon class="cls-3" points="644.9 42.15 649.7 37.34 640.93 28.57 639.01 30.5 645.83 37.32 642.97 40.18 644.9 42.15"/>
      <polygon class="cls-3" points="640.47 35.36 638.25 33.13 629.13 42.25 639.75 52.87 631.94 60.68 633.31 63.1 642.93 53.01 633.89 42.49 640.47 35.36"/>
      <polygon class="cls-3" points="634.85 52.44 632.93 49.94 626.63 56.04 628.7 58.49 634.85 52.44"/>
      <polygon class="cls-3" points="631.53 36.33 644.36 20.67 635.48 10.91 633.46 13.31 640.04 20.33 628.36 34.08 631.53 36.33"/>
      <polygon class="cls-3" points="633.99 24.42 636.2 21.72 631.29 15.76 629.13 18.65 633.99 24.42"/>
    </g>
  </g>
  <g id="Text">
    <g>
      <path class="cls-2" d="M277.92,34.5c0-5.51-1.35-9.88-4.04-13.11-2.7-3.23-5.86-4.85-9.49-4.85-3.34,0-6.87,1.49-10.58,4.48l.29,28.65c0,3.42.16,6.85.47,10.28l-7.09,2.11c.19-3.4.29-6.8.29-10.2l-.29-30.06c0-2.48-1.17-4.1-3.52-4.86.86-2.66,2.27-4.41,4.25-5.27,3.14.59,4.97,2.69,5.48,6.3,3.26-3.91,7.62-5.86,13.07-5.86,4.67,0,8.81,1.63,12.42,4.89,3.61,3.26,5.42,7.52,5.42,12.77,0,6.43-1.74,11.73-5.23,15.92s-7.96,6.28-13.43,6.28c-2.89,0-6.47-1.04-10.75-3.11,1.02-2.36,2.85-3.84,5.51-4.42,3.93,2.56,7.13,3.84,9.61,3.84s4.44-1.26,5.71-3.79c1.27-2.53,1.9-5.86,1.9-10Z"/>
      <path class="cls-2" d="M329.47,52.63c-1.31,0-3.22-.42-5.73-1.27-2.51-.85-4.87-1.27-7.08-1.27s-4.42.17-6.36.5c-1.93.33-3.72.93-5.36,1.79-.2.1-.68.15-1.46.15l.7-28.36c0-2.89,1.73-5.63,5.2-8.23,3.47-2.6,6.98-3.9,10.53-3.9,2.6,0,5.61.81,9.02,2.43-.94,1.74-2.68,3.05-5.21,3.93-3.38-1.93-5.98-2.9-7.79-2.9-1.25,0-2.35.22-3.31.67-.96.45-1.46,1.5-1.49,3.16l-.5,21.06c-.06,2.66-.88,5.49-2.46,8.5,4.14-2.44,8.52-3.66,13.12-3.66s8.92.71,12.57,2.14c-.92,2.38-2.38,4.14-4.39,5.27Z"/>
      <path class="cls-2" d="M350.12,32.62c.08-2.21.15-4.6.21-7.18,5.64-8.93,10.35-13.39,14.12-13.39,5.27,0,10.51,2.3,15.7,6.91,0,20.04,1.73,30.06,5.19,30.06-.88,2.77-2.5,4.16-4.86,4.16-3.44,0-5.59-5.69-6.45-17.08h-18.98c-.29,2.89-.8,5.78-1.52,8.67-1.23,4.9-2.94,7.86-5.13,8.88-.57-.08-1-.37-1.29-.88,1.39-1.09,2.34-6.65,2.87-16.67-1.95,0-2.93-1.26-2.93-3.78,1.02.2,2.04.29,3.08.29ZM373.82,32.62c-.16-3.28-.23-6.92-.23-10.93-4.14-2.97-7.86-4.45-11.16-4.45-2.66,0-4.5.94-5.52,2.83-1.03,1.89-1.54,5.23-1.54,10.03,0,.84-.02,1.68-.06,2.52h18.52Z"/>
      <path class="cls-2" d="M412.1,47.53l-10.34-28.86c-.41-1.13-1.45-1.7-3.11-1.7.39-2.7,1.74-4.57,4.04-5.62,2.5,0,4.19,1.16,5.07,3.49l11.89,31.11h1.58c6.52-6.91,9.79-14.33,9.79-22.24,0-4.14-1.62-6.21-4.86-6.21-.33,0-.67.06-1.03.18,0-2.89,1.27-4.89,3.81-6.01,5.39.78,8.09,3.86,8.09,9.23,0,8.87-5.38,18.78-16.14,29.74-2.01,2.05-3.02,3.93-3.02,5.62s1.07,2.73,3.22,3.22c-1.74,1.82-3.87,2.72-6.39,2.72-.51-1.15-.76-2.27-.76-3.34,0-2.09.85-4.61,2.55-7.56-2.23-.59-3.69-1.85-4.39-3.78Z"/>
    </g>
  </g>
</svg>