<?xml version="1.0" encoding="UTF-8"?>
<svg id="_Слой_2" data-name="Слой_2" xmlns="http://www.w3.org/2000/svg" viewBox="0 0 683.26 71.67">
  <defs>
    <style>
      .cls-1 {
        stroke: #ccc;
        stroke-miterlimit: 10;
        stroke-width: 5px;
      }

      .cls-2 {
        fill: #ccc;
      }

      .cls-3 {
        fill: #e6e6e6;
      }
    </style>
  </defs>
  <g id="_Слой_6" data-name="Слой_6">
    <polygon class="cls-1" points="679.17 35.32 638.66 66.54 635.26 69.17 48 69.17 45.48 67.22 4.1 35.32 46.68 2.5 636.58 2.5 638.66 4.1 679.17 35.32"/>
    <g>
      <polygon class="cls-3" points="37.12 22.43 24.26 35.29 36.66 47.69 39.52 44.83 38.05 43.36 36.92 43.36 28.79 35.23 37.38 26.64 43.84 33.1 46.54 30.41 37.12 22.43"/>
      <polygon class="cls-3" points="37.84 30.22 33.03 35.03 41.8 43.8 43.72 41.87 36.9 35.05 39.76 32.19 37.84 30.22"/>
      <polygon class="cls-3" points="42.26 37.01 44.49 39.24 53.6 30.12 42.98 19.5 50.79 11.69 49.42 9.26 39.81 19.36 48.84 29.88 42.26 37.01"/>
      <polygon class="cls-3" points="47.88 19.93 49.8 22.43 56.1 16.33 54.03 13.88 47.88 19.93"/>
      <polygon class="cls-3" points="51.2 36.04 38.38 51.7 47.26 61.46 49.28 59.06 42.69 52.04 54.37 38.29 51.2 36.04"/>
      <polygon class="cls-3" points="48.75 47.95 46.54 50.64 51.44 56.6 53.6 53.72 48.75 47.95"/>
    </g>
    <g>
      <polygon class="cls-3" points="645.62 49.94 658.47 37.08 646.07 24.68 643.21 27.54 644.68 29.01 645.81 29.01 653.94 37.14 645.35 45.73 638.89 39.27 636.2 41.96 645.62 49.94"/>
      <polygon class="cls-3" points="644.9 42.15 649.7 37.34 640.93 28.57 639.01 30.5 645.83 37.32 642.97 40.18 644.9 42.15"/>
      <polygon class="cls-3" points="640.47 35.36 638.25 33.13 629.13 42.25 639.75 52.87 631.94 60.68 633.31 63.1 642.93 53.01 633.89 42.49 640.47 35.36"/>
      <polygon class="cls-3" points="634.85 52.44 632.93 49.94 626.63 56.04 628.7 58.49 634.85 52.44"/>
      <polygon class="cls-3" points="631.53 36.33 644.36 20.67 635.48 10.91 633.46 13.31 640.04 20.33 628.36 34.08 631.53 36.33"/>
      <polygon class="cls-3" points="633.99 24.42 636.2 21.72 631.29 15.76 629.13 18.65 633.99 24.42"/>
    </g>
  </g>
  <g id="Text">
    <g>
      <path class="cls-2" d="M222.67,47.9v-24.38c0-1.35-.79-2.32-2.37-2.93,1.31-2.21,2.95-3.76,4.92-4.66,2.42,1.17,3.63,2.3,3.63,3.37v31.9c0,1.05.38,2.36,1.14,3.93-1.35,1.82-3.3,2.73-5.86,2.75-.98-1.5-1.46-3-1.46-4.48v-2.08c-6.54,3.79-10.38,5.68-11.51,5.68h-2.29c-4.67,0-8.55-1.75-11.66-5.24-3.11-3.5-4.66-7.47-4.66-11.92,0-7.17,2.74-13.06,8.23-17.67-1.31-1.29-2.95-1.93-4.92-1.93-1.15,0-2.44.22-3.87.64l-.38-.73c2.52-2.91,4.93-4.37,7.24-4.37,1.35,0,4.08,1.16,8.2,3.49-5.47,5.06-8.2,11.11-8.2,18.16,0,4.34,1.45,7.89,4.34,10.66,2.89,2.77,6.62,4.16,11.19,4.16,3.52,0,6.28-1.45,8.29-4.37Z"/>
      <path class="cls-2" d="M281.28,38.82c0-5.51-1.35-9.88-4.04-13.11-2.7-3.23-5.86-4.85-9.49-4.85-3.34,0-6.87,1.49-10.58,4.48l.29,28.65c0,3.42.16,6.85.47,10.28l-7.09,2.11c.19-3.4.29-6.8.29-10.2l-.29-30.06c0-2.48-1.17-4.1-3.52-4.86.86-2.66,2.27-4.41,4.25-5.27,3.14.59,4.97,2.69,5.48,6.3,3.26-3.91,7.62-5.86,13.07-5.86,4.67,0,8.81,1.63,12.42,4.89,3.61,3.26,5.42,7.52,5.42,12.77,0,6.43-1.74,11.73-5.23,15.92s-7.96,6.28-13.43,6.28c-2.89,0-6.47-1.04-10.75-3.11,1.02-2.36,2.85-3.84,5.51-4.42,3.93,2.56,7.13,3.84,9.61,3.84s4.44-1.26,5.71-3.79c1.27-2.53,1.9-5.86,1.9-10Z"/>
      <path class="cls-2" d="M322.34,57.07c-5.41,0-10.15-.31-14.21-.94v-27.6c0-1.62,1.64-3.35,4.92-5.19v-.53c-4.77-.14-7.47-1.2-8.12-3.19.18-1.62,1.42-2.99,3.72-4.1,1.09,1.02,2.11,1.52,3.05,1.52,1.25,0,2.99-.11,5.21-.32,2.23-.21,4.01-.32,5.36-.32,5.37,0,10.08,1.41,14.12,4.22,5.1,3.56,7.65,8.64,7.65,15.26,0,5.7-1.86,10.57-5.57,14.59-4.08,4.39-9.46,6.59-16.14,6.59ZM327.03,53.35c2.97,0,5.42-1.19,7.35-3.57,2.17-2.71,3.25-6.28,3.25-10.69s-1.4-8.39-4.19-11.63c-3.11-3.63-7.31-5.45-12.6-5.45-1.86,0-3.4.39-4.63,1.17-1.23.78-1.85,2.37-1.85,4.78v24.4c3.52.66,7.73,1,12.66,1Z"/>
      <path class="cls-2" d="M363.96,36.95c.08-2.21.15-4.6.21-7.18,5.64-8.93,10.35-13.39,14.12-13.39,5.27,0,10.51,2.3,15.7,6.91,0,20.04,1.73,30.06,5.19,30.06-.88,2.77-2.5,4.16-4.86,4.16-3.44,0-5.59-5.69-6.45-17.08h-18.98c-.29,2.89-.8,5.78-1.52,8.67-1.23,4.9-2.94,7.86-5.13,8.88-.57-.08-1-.37-1.29-.88,1.39-1.09,2.34-6.65,2.87-16.67-1.95,0-2.93-1.26-2.93-3.78,1.02.2,2.04.29,3.08.29ZM387.66,36.95c-.16-3.28-.23-6.92-.23-10.93-4.14-2.97-7.86-4.45-11.16-4.45-2.66,0-4.5.94-5.52,2.83-1.03,1.89-1.54,5.23-1.54,10.03,0,.84-.02,1.68-.06,2.52h18.52Z"/>
      <path class="cls-2" d="M439.94,57.07c-7.09,0-12.41-1.58-15.97-4.75-3.77-3.28-5.65-7.71-5.65-13.27,0-3.32.93-6.4,2.8-9.24s4.39-5.44,7.57-7.81c-2.58-.27-4.8-.41-6.68-.41-3.26,0-6.11.83-8.55,2.49.72-1.84,1.97-3.62,3.74-5.35s3.8-2.59,6.11-2.59c2.75,0,5.95.17,9.59.51,3.64.34,6.59.51,8.83.51,1.88,0,4.37-.14,7.47-.41-1.89,4.02-5.51,6.04-10.84,6.04-1.86,0-3.64-.12-5.36-.35-2.58,1.5-4.58,3.54-6.02,6.12s-2.15,5.43-2.15,8.55c0,4.57,1.68,8.1,5.04,10.58,3.16,2.36,7.12,3.54,11.87,3.54,2.66,0,4.86-.3,6.62-.91-1.66,4.49-4.46,6.74-8.41,6.74Z"/>
      <path class="cls-2" d="M484.29,57.19c-6.43,0-11.45-1.83-15.07-5.49s-5.43-8.68-5.43-15.04,2.24-11.49,6.71-15.26c3.85-3.28,8.42-4.92,13.71-4.92,3.67,0,8.09,1.52,13.24,4.57-1.35,1.8-3.16,3.09-5.45,3.87-3.67-2.66-8.54-3.98-14.62-3.98-3.09,0-5.23,1.62-6.45,4.86-.37,1.07-.69,3.2-.97,6.39h17.31c-.16,1.72-1.01,3.2-2.55,4.45l-15-.76c0,5.08,1.82,8.98,5.45,11.72,3.07,2.3,7.34,3.46,12.83,3.46,3.18,0,6.05-.44,8.61-1.32l.82.12c-1.11,3.32-3.01,5.65-5.68,7-2.38.23-4.87.35-7.47.35Z"/>
    </g>
  </g>
</svg>