<?xml version="1.0" encoding="UTF-8"?>
<svg id="_Слой_2" data-name="Слой_2" xmlns="http://www.w3.org/2000/svg" viewBox="0 0 683.26 71.67">
  <defs>
    <style>
      .cls-1 {
        stroke: #ccc;
        stroke-miterlimit: 10;
        stroke-width: 5px;
      }

      .cls-2 {
        fill: #ccc;
      }

      .cls-3 {
        fill: #e6e6e6;
      }
    </style>
  </defs>
  <g id="_Слой_6" data-name="Слой_6">
    <polygon class="cls-1" points="679.17 35.32 638.66 66.54 635.26 69.17 48 69.17 45.48 67.22 4.1 35.32 46.68 2.5 636.58 2.5 638.66 4.1 679.17 35.32"/>
    <g>
      <polygon class="cls-3" points="37.12 22.43 24.26 35.29 36.66 47.69 39.52 44.83 38.05 43.36 36.92 43.36 28.79 35.23 37.38 26.64 43.84 33.1 46.54 30.41 37.12 22.43"/>
      <polygon class="cls-3" points="37.84 30.22 33.03 35.03 41.8 43.8 43.72 41.87 36.9 35.05 39.76 32.19 37.84 30.22"/>
      <polygon class="cls-3" points="42.26 37.01 44.49 39.24 53.6 30.12 42.98 19.5 50.79 11.69 49.42 9.26 39.81 19.36 48.84 29.88 42.26 37.01"/>
      <polygon class="cls-3" points="47.88 19.93 49.8 22.43 56.1 16.33 54.03 13.88 47.88 19.93"/>
      <polygon class="cls-3" points="51.2 36.04 38.38 51.7 47.26 61.46 49.28 59.06 42.69 52.04 54.37 38.29 51.2 36.04"/>
      <polygon class="cls-3" points="48.75 47.95 46.54 50.64 51.44 56.6 53.6 53.72 48.75 47.95"/>
    </g>
    <g>
      <polygon class="cls-3" points="645.62 49.94 658.47 37.08 646.07 24.68 643.21 27.54 644.68 29.01 645.81 29.01 653.94 37.14 645.35 45.73 638.89 39.27 636.2 41.96 645.62 49.94"/>
      <polygon class="cls-3" points="644.9 42.15 649.7 37.34 640.93 28.57 639.01 30.5 645.83 37.32 642.97 40.18 644.9 42.15"/>
      <polygon class="cls-3" points="640.47 35.36 638.25 33.13 629.13 42.25 639.75 52.87 631.94 60.68 633.31 63.1 642.93 53.01 633.89 42.49 640.47 35.36"/>
      <polygon class="cls-3" points="634.85 52.44 632.93 49.94 626.63 56.04 628.7 58.49 634.85 52.44"/>
      <polygon class="cls-3" points="631.53 36.33 644.36 20.67 635.48 10.91 633.46 13.31 640.04 20.33 628.36 34.08 631.53 36.33"/>
      <polygon class="cls-3" points="633.99 24.42 636.2 21.72 631.29 15.76 629.13 18.65 633.99 24.42"/>
    </g>
  </g>
  <g id="_Слой_10" data-name="Слой_10">
    <g>
      <path class="cls-2" d="M257.22,54.63c-1.07,0-2.11-.34-3.11-1.03-1.21-.84-2.17-1.96-2.87-3.37-.22-.43-.36-.68-.44-.76-.23-.33-.49-.52-.76-.56-1.29,1.17-2.51,2.2-3.66,3.08-2.29,1.68-4.13,2.6-5.54,2.75-.47.04-1.58.23-3.34.59-1.45.25-2.61.38-3.49.38-2.93,0-5.73-1.3-8.41-3.9-1.15-1.17-2.01-2.9-2.58-5.19-.68-2.87-1.03-7.13-1.03-12.77,0-8.16-.12-12.72-.35-13.68-.31-1.27-1.09-2.25-2.34-2.93-.76-.41-1.24-.73-1.44-.97-.33-.39-.5-.99-.5-1.79,2.62,0,4.8-.18,6.56-.54,1.76-.36,2.66-.54,2.7-.54,1.19,0,1.79.82,1.79,2.46,0,.35-.02,1.31-.06,2.87-.08,1.6-.12,3.07-.12,4.39v4.13c-.04,1.84-.06,3.17-.06,4.01,0,5.72.4,9.8,1.2,12.25,1.52,4.65,4.71,6.97,9.55,6.97,1.84,0,3.57-.32,5.21-.97,2.03-.84,3.51-2.06,4.42-3.66.94-1.97,1.41-5.06,1.41-9.26,0-1.95-.13-4.11-.38-6.47-.08-.76-.16-2.73-.23-5.92-.08-2.48-.27-4.44-.59-5.89-.08-.37-.57-1-1.46-1.88l-.41-.41c-.61-.53-.91-.97-.91-1.32,0-.31.22-.6.67-.85,2.4-.59,4.79-.88,7.15-.88.43,0,.76.06,1,.18.45.39.67,2.97.67,7.73v18.16c0,3.97.3,6.77.91,8.41.8,2.17,2.46,3.65,4.98,4.45-.18.68-.63,1.28-1.38,1.79-.84.61-1.77.91-2.78.91Z"/>
      <path class="cls-2" d="M287.48,46.57h-3.19l-5.57-1.11c-.41.16-.62.47-.62.94v5.16c0,.98.24,1.46.73,1.46h7.38c2.56,0,5.21.23,7.97.7,2.68.49,4.01.93,4.01,1.32,0,.68-.35,1.06-1.05,1.14l-7.62-.85h-15.21c-.8,0-2.2.15-4.19.44-1.99.27-3.5.41-4.51.41-.66,0-1.08-.06-1.26-.18-.23-.16-.35-.54-.35-1.14,0-.68.72-1.06,2.17-1.14.88,0,2.31-.08,4.31-.23,1.13-.16,1.7-2.04,1.7-5.65v-12.77c0-.72-.24-3.06-.73-7-.53-4.57-.97-7.33-1.32-8.29-.16-.41-1.42-.83-3.78-1.26-1.15-.19-2.01-.37-2.58-.53-.88-.25-1.32-.58-1.32-.97,0-.76.44-1.14,1.32-1.14,5.76,1.15,9.54,1.73,11.34,1.73.39,0,.93-.23,1.61-.7.45-.33,1.15-.88,2.11-1.64,2.21-1.68,4.46-2.52,6.77-2.52h3.66c3.09,0,6.04,1.33,8.88,3.98,3.09,2.87,4.63,6.21,4.63,10.02v4.07c0,3.12-1.58,6.46-4.75,10.02-3.4,3.83-6.91,5.74-10.55,5.74ZM283.76,16.34c-1.91,0-3.46.64-4.63,1.93-.88.96-1.32,1.84-1.32,2.64v11.63c0,3.4.32,5.66.97,6.8.68.8,2.52,1.7,5.51,2.7,2.73.92,4.54,1.38,5.42,1.38,2.07,0,3.79-1.78,5.16-5.33,1-2.73,1.49-5.21,1.49-7.44,0-4.12-1.1-7.5-3.31-10.14-2.3-2.77-5.4-4.16-9.29-4.16Z"/>
      <path class="cls-2" d="M333.38,55.39c-.35,0-2.61-.25-6.77-.75s-6.85-.75-8.06-.75c-1.95,0-3.45.38-4.48,1.14-1.6,1.17-2.78,3.37-3.54,6.59-.29,0-.62-.58-.97-1.73-.31-1-.47-1.66-.47-1.99,0-1,.31-2.15.94-3.46.72-1.48,1.63-2.57,2.72-3.25.7-.43,2.1-.79,4.19-1.08.12,0,.33-.06.64-.18v.06l.09-4.37v-9.14c0-10.31-.13-15.73-.38-16.26-.23-.47-1.51-.95-3.84-1.44-.61-.12-1.45-.29-2.52-.53-.84-.33-1.26-.71-1.26-1.14,0-.92.36-1.38,1.08-1.38,5.31,1.31,8.63,1.96,9.96,1.96h.35c2.68-2.99,5.84-4.52,9.49-4.6h.35c4.57,0,8.29,1.64,11.16,4.92,3.28,3.71,4.92,9.04,4.92,16,0,5.64-1.18,10.53-3.54,14.65-2.6,4.47-5.96,6.71-10.08,6.71ZM328.17,17.13c-3.73,0-5.6,1.6-5.6,4.8,0,2.91.17,8.49.5,16.73.27,7.93.45,11.89.53,11.89l13.15,1.2c1.04,0,2.05-1.04,3.05-3.13,1.6-3.36,2.4-7.28,2.4-11.75,0-5.33-1.34-9.93-4.01-13.8-2.71-3.96-6.05-5.95-10.02-5.95Z"/>
      <path class="cls-2" d="M362.85,37.28c.84-3.63,2.6-10.41,5.27-20.33-.04-.37-.59-.63-1.64-.79-2.03-.16-4.09-.29-6.18-.41-2.79-.45-4.19-1.37-4.19-2.75,4.73.27,10.68.55,17.87.82,2.44,0,5.22-.18,8.35-.53,3.12-.37,4.97-.56,5.54-.56,1.43,0,2.34.51,2.75,1.52-.72.51-1.81.86-3.25,1.05-.8.14-1.24.22-1.32.26-.27.16-.41.58-.41,1.26,0,1.84.48,5.27,1.44,10.31.92,4.59,1.51,7.21,1.79,7.85l.06.29c.57,3.09,1.13,6.17,1.7,9.26.92,4.47,1.78,6.99,2.58,7.56.23.16.77.25,1.61.29.8,0,1.38.12,1.73.35.57.37.85,1.09.85,2.17-.96.19-1.68.29-2.17.29l-2.08-.29c-1.45-.16-3.45-.23-6.01-.23-1.84,0-3.34.08-4.51.23l-1.55.23c-.47-.47-.7-.91-.7-1.32,0-.55.71-.99,2.14-1.32,1.6-.39,2.57-.79,2.9-1.2-1.33-10.16-2.26-15.52-2.78-16.08-1.72.04-4.72.36-8.99.97-5,.68-7.73,1.29-8.2,1.82-.37,1.11-.81,2.83-1.32,5.16-.76,3.52-1.14,6.42-1.14,8.7.08.8.41,1.2,1,1.2.18,0,.58-.04,1.2-.12.61-.1,1.17-.15,1.7-.15.55.18.82.94.82,2.29-.47.08-4.48.36-12.04.85-.04-.68-.06-1.29-.06-1.82,0-.59.14-.88.41-.88l.29.06.18.12c.18.08.34.12.5.12.31,0,.69-.16,1.14-.47.35-.25,1.79-5.29,4.31-15.12.12-.45.26-.67.44-.67ZM378.44,16.34h-1.32c-.61,0-1.63.02-3.08.06-1.46.04-2.46.06-2.99.06-2.36,8.93-3.72,14.13-4.07,15.62.16.04.65.06,1.49.06,3.71,0,8.25-.28,13.62-.85-.04-2.03-.6-5.05-1.67-9.05-1.02-3.67-1.68-5.63-1.99-5.89Z"/>
      <path class="cls-2" d="M436.2,16.95c-.92.72-1.84,1.26-2.75,1.61-1.88.68-4.27,1.03-7.18,1.03s-4.59.23-4.75.7v30.12c0,1.13,1.44,1.72,4.31,1.76.8,0,1.88.02,3.25.06,1.11.12,1.67.5,1.67,1.14,0,.31-.12.65-.35,1.03-5-.12-9.46-.18-13.39-.18-1.91,0-3.96.23-6.12.7-2.15.49-3.43.73-3.84.73-1.07,0-1.61-.7-1.61-2.11l9.11-1.55c.64-.45.97-3.25.97-8.41l-.06-17.46c-.04-2.75-.21-4.61-.5-5.57-.23-.84-.83-1.26-1.79-1.26h-2.17s-.44-.02-1.2-.06h-2.14c-3.73,0-6.02.25-6.86.76-.88.57-1.32,1.48-1.32,2.75v1.64c-1.45,0-2.17-.82-2.17-2.46,0-1.45.4-2.87,1.2-4.28,1.09-1.91,3.52-2.87,7.27-2.87,1.21,0,4.39.1,9.55.29,5.16.25,9.05.38,11.69.38,5.49,0,8.23-.36,8.23-1.08,0-.18-.17-.48-.5-.91-.31-.49-.47-.85-.47-1.08s.1-.45.29-.64c1.45-1.13,2.45-1.7,3.02-1.7.51,0,.93.26,1.26.79.31.47.47.97.47,1.49,0,1.37-1.04,2.91-3.13,4.63Z"/>
      <path class="cls-2" d="M475.84,48.8v11.72c-.29.08-.5.16-.62.23l-.41.23c-.2.12-.67.25-1.44.41v-9.64c-5.92,2.56-10.59,3.84-14,3.84-.66,0-1.14-.02-1.44-.06-5.23-.72-9.13-2.69-11.69-5.89-1.95-2.44-3.46-6.24-4.51-11.4-.2-1-.29-2.04-.29-3.13,0-3.16.74-6.64,2.23-10.43,1.27-3.16,2.41-5.24,3.43-6.24,1.07-1.07,2.89-2.16,5.45-3.25,3.01-1.23,5.73-1.85,8.17-1.85,1.62,0,4.64,1.74,9.05,5.21.68.53,1.14.87,1.38,1.03,1.91-3.24,3.12-4.86,3.6-4.86.16,0,.43.12.82.35.04,0,.19.06.44.18-.12.49-.5,1.37-1.14,2.64-2.93,5.98-4.39,9.58-4.39,10.81,0,.12.51.18,1.52.18,1.23,0,3.01-.18,5.33-.53,0,.31-.24,3.75-.73,10.31-.51,6.6-.76,9.98-.76,10.14ZM456.21,17.6c-1.64.04-3.36,1.22-5.16,3.54-1.88,2.4-2.81,4.79-2.81,7.15.12.76.35,1.24.7,1.44.27.16.85.23,1.73.23,9.34,0,15.26-.28,17.78-.85-.8-2.07-2.46-4.42-4.98-7.06-2.77-2.97-5.16-4.45-7.15-4.45h-.12ZM468.22,34.35c-13.24,0-19.9.65-19.98,1.96.96,4.45,2.99,7.98,6.09,10.58,3.09,2.52,6.75,3.78,10.99,3.78,2.81,0,5.43-.55,7.85-1.64.14-.47.28-2.74.44-6.83.04-2.17.12-4.77.23-7.79-.12,0-.82-.02-2.11-.06h-3.52Z"/>
    </g>
  </g>
</svg>