<?xml version="1.0" encoding="UTF-8"?>
<svg id="_Слой_2" data-name="Слой_2" xmlns="http://www.w3.org/2000/svg" viewBox="0 0 103.75 104.64">
  <defs>
    <style>
      .cls-1 {
        fill: #fff;
      }

      .cls-2 {
        fill: #999;
      }
    </style>
  </defs>
  <g id="Low_x5F_buttons_x5F_base">
    <path d="M103.75,84.39v19.49c0,.42-.33.76-.75.76h-19.49c-.42,0-.76-.34-.76-.76v-4.03H21.02v4.03c0,.42-.34.76-.75.76H.77c-.41,0-.75-.34-.75-.76v-19.49c0-.41.34-.75.75-.75h3.08V21H.76c-.42,0-.76-.34-.76-.75V.75c0-.41.34-.75.76-.75h19.49c.42,0,.75.34.75.75v3.21h61.74V.75c0-.41.34-.75.75-.75h19.5c.41,0,.75.34.75.75v19.5c0,.41-.34.75-.75.75h-3.25v62.64h3.26c.42,0,.75.34.75.75Z"/>
    <g>
      <path class="cls-2" d="M15.3,5.91v2.35c0,.16-.13.3-.29.3h-.81v6.52c0,.17-.14.31-.31.31h-2.34c-.17,0-.31-.14-.31-.31V5.92c0-.17.14-.3.31-.3h3.46c.16,0,.29.13.29.29Z"/>
      <path class="cls-2" d="M10.45,11.51v2.41c0,.17-.13.3-.3.3h-.42v68.75c0,.16-.14.3-.3.3h-2.47c-.17,0-.3-.14-.3-.3V11.51c0-.16.13-.3.3-.3h3.19c.17,0,.3.14.3.3Z"/>
      <path class="cls-2" d="M19.18,2.86v7.42c0,.07-.06.13-.14.13h-2.44c-.08,0-.14-.06-.14-.13v-4.69c0-.53-.43-.95-.95-.95H5.89c-.52,0-.95.42-.95.95v9.66c0,.52.43.95.95.95h.04c.1,0,.18.08.18.18v2.37c0,.1-.08.18-.18.18h-2.76c-.52,0-.95-.43-.95-.95V2.86c0-.53.43-.95.95-.95h15.06c.52,0,.95.42.95.95Z"/>
      <path class="cls-2" d="M19.18,15.09v2.89c0,.52-.43.95-.95.95h-7.81c-.11,0-.2-.08-.2-.19v-2.34c0-.11.09-.2.2-.2h5.09c.52,0,.95-.43.95-.95v-.16c.02-.09.09-.15.19-.15h2.34c.1,0,.17.06.19.15Z"/>
      <path class="cls-2" d="M27.52,11.57v1.33c0,.08,0,.45-.03.9-.47,6.42-6.91,13.46-13.8,14.09-.94.09-1.71.04-2.1,0-.19,0-.35-.15-.35-.35v-7.82c0-.2.16-.36.35-.36h2.1c.19,0,.35.16.35.36v3.76c0,.4.32.72.72.72.05,0,.11-.01.16-.02.04-.01.08-.02.12-.04,4.52-1.2,8.06-4.82,9.16-9.39.01-.05.02-.11.02-.16,0-.32-.26-.58-.58-.58h-8.19c-.2,0-.36-.15-.36-.35v-2.09c0-.2.16-.36.36-.36h11.72c.19,0,.35.16.35.36Z"/>
      <path class="cls-2" d="M88.57,98v-2.35c0-.16.13-.3.29-.3h.81v-6.52c0-.17.14-.31.31-.31h2.34c.17,0,.31.14.31.31v9.16c0,.17-.14.3-.31.3h-3.46c-.16,0-.29-.13-.29-.29Z"/>
      <path class="cls-2" d="M93.42,92.4v-2.41c0-.17.13-.3.3-.3h.42V20.94c0-.16.14-.3.3-.3h2.47c.17,0,.3.14.3.3v71.46c0,.16-.13.3-.3.3h-3.19c-.17,0-.3-.14-.3-.3Z"/>
      <path class="cls-2" d="M84.69,101.05v-7.42c0-.07.06-.13.14-.13h2.44c.08,0,.14.06.14.13v4.69c0,.53.43.95.95.95h9.62c.52,0,.95-.42.95-.95v-9.66c0-.52-.43-.95-.95-.95h-.04c-.1,0-.18-.08-.18-.18v-2.37c0-.1.08-.18.18-.18h2.76c.52,0,.95.43.95.95v15.12c0,.53-.43.95-.95.95h-15.06c-.52,0-.95-.42-.95-.95Z"/>
      <path class="cls-2" d="M84.69,88.82v-2.89c0-.52.43-.95.95-.95h7.81c.11,0,.2.08.2.19v2.34c0,.11-.09.2-.2.2h-5.09c-.52,0-.95.43-.95.95v.16c-.02.09-.09.15-.19.15h-2.34c-.1,0-.17-.06-.19-.15Z"/>
      <path class="cls-2" d="M76.35,92.34v-1.33c0-.08,0-.45.03-.9.47-6.42,6.91-13.46,13.8-14.09.94-.09,1.71-.04,2.1,0,.19,0,.35.15.35.35v7.82c0,.2-.16.36-.35.36h-2.1c-.19,0-.35-.16-.35-.36v-3.76c0-.4-.32-.72-.72-.72-.05,0-.11.01-.16.02-.04.01-.08.02-.12.04-4.52,1.2-8.06,4.82-9.16,9.39-.01.05-.02.11-.02.16,0,.32.26.58.58.58h8.19c.2,0,.36.15.36.35v2.09c0,.2-.16.36-.36.36h-11.72c-.19,0-.35-.16-.35-.36Z"/>
      <path class="cls-2" d="M101.21,19.09h-7.42c-.07,0-.13-.06-.13-.14v-2.44c0-.08.06-.14.13-.14h4.69c.53,0,.95-.43.95-.95V5.8c0-.52-.42-.95-.95-.95h-9.66c-.52,0-.95.43-.95.95v.04c0,.1-.08.18-.18.18h-2.37c-.1,0-.18-.08-.18-.18v-2.76c0-.52.43-.95.95-.95h15.12c.53,0,.95.43.95.95v15.06c0,.52-.42.95-.95.95Z"/>
      <path class="cls-2" d="M92.87,10.45h-2.41c-.17,0-.3-.13-.3-.3v-.42H21.41c-.16,0-.3-.14-.3-.3v-2.47c0-.17.14-.3.3-.3h71.46c.16,0,.3.13.3.3v3.19c0,.17-.14.3-.3.3Z"/>
      <path class="cls-2" d="M97.77,15.39h-2.35c-.16,0-.3-.13-.3-.29v-.81h-6.52c-.17,0-.31-.14-.31-.31v-2.34c0-.17.14-.31.31-.31h9.16c.17,0,.3.14.3.31v3.46c0,.16-.13.29-.29.29Z"/>
      <path class="cls-2" d="M88.31,19.89h-2.89c-.52,0-.95-.43-.95-.95v-7.81c0-.11.08-.2.19-.2h2.34c.11,0,.2.09.2.2v5.09c0,.52.43.95.95.95h.16c.09.02.15.09.15.19v2.34c0,.1-.06.17-.15.19Z"/>
      <path class="cls-2" d="M91.83,28.23h-1.33c-.08,0-.45,0-.9-.03-6.42-.47-13.46-6.91-14.09-13.8-.09-.94-.04-1.71,0-2.1,0-.19.15-.35.35-.35h7.82c.2,0,.36.16.36.35v2.1c0,.19-.16.35-.36.35h-3.76c-.4,0-.72.32-.72.72,0,.05.01.11.02.16.01.04.02.08.04.12,1.2,4.52,4.82,8.06,9.39,9.16.05.01.11.02.16.02.32,0,.58-.26.58-.58v-8.19c0-.2.15-.36.35-.36h2.09c.2,0,.36.16.36.36v11.72c0,.19-.16.35-.36.35Z"/>
      <path class="cls-2" d="M3.17,85.89h7.42c.07,0,.13.06.13.14v2.44c0,.08-.06.14-.13.14h-4.69c-.53,0-.95.43-.95.95v9.62c0,.52.42.95.95.95h9.66c.52,0,.95-.43.95-.95v-.04c0-.1.08-.18.18-.18h2.37c.1,0,.18.08.18.18v2.76c0,.52-.43.95-.95.95H3.17c-.53,0-.95-.43-.95-.95v-15.06c0-.52.42-.95.95-.95Z"/>
      <path class="cls-2" d="M11.51,94.53h2.41c.17,0,.3.13.3.3v.42s68.75,0,68.75,0c.16,0,.3.14.3.3v2.47c0,.17-.14.3-.3.3H11.51c-.16,0-.3-.13-.3-.3v-3.19c0-.17.14-.3.3-.3Z"/>
      <path class="cls-2" d="M6.61,89.59h2.35c.16,0,.3.13.3.29v.81s6.52,0,6.52,0c.17,0,.31.14.31.31v2.34c0,.17-.14.31-.31.31H6.62c-.17,0-.3-.14-.3-.31v-3.46c0-.16.13-.29.29-.29Z"/>
      <path class="cls-2" d="M16.07,85.1h2.89c.52,0,.95.43.95.95v7.81c0,.11-.08.2-.19.2h-2.34c-.11,0-.2-.09-.2-.2v-5.09c0-.52-.43-.95-.95-.95h-.16c-.09-.02-.15-.09-.15-.19v-2.34c0-.1.06-.17.15-.19Z"/>
      <path class="cls-2" d="M12.55,76.76h1.33c.08,0,.45,0,.9.03,6.42.47,13.46,6.91,14.09,13.8.09.94.04,1.71,0,2.1,0,.19-.15.35-.35.35h-7.82c-.2,0-.36-.16-.36-.35v-2.1c0-.19.16-.35.36-.35h3.76c.4,0,.72-.32.72-.72,0-.05-.01-.11-.02-.16-.01-.04-.02-.08-.04-.12-1.2-4.52-4.82-8.06-9.39-9.16-.05-.01-.11-.02-.16-.02-.32,0-.58.26-.58.58v8.19c0,.2-.15.36-.35.36h-2.09c-.2,0-.36-.16-.36-.36v-11.72c0-.19.16-.35.36-.35Z"/>
    </g>
  </g>
  <g id="Low_x5F_buttens_x5F_icons">
    <path class="cls-1" d="M55.16,19.74c-3.93,13.99-7.81,27.8-11.78,41.9h7.95c-2.09,5.37-4.08,10.49-6.07,15.61.26.13.52.26.78.39,5.53-7.95,11.06-15.9,16.87-24.25h-7.98c.43-1.17.72-2.03,1.05-2.88,1.76-4.49,3.61-8.95,5.25-13.48.59-1.63,1.48-1.87,2.97-1.64,7.93,1.23,13.34,7.38,13.5,15.44.08,3.82-.7,7.48-2.39,10.91-2.58,5.25-6.25,9.69-10.59,13.54-3.98,3.54-8.95,4.96-14.11,5.65-2.78.37-5.63.77-8.41.56-5.71-.43-10.47-2.8-13.6-7.86-1.89-3.05-2.29-6.46-1.55-9.77,1.61-7.2,3.52-14.34,5.48-21.46,1.95-7.06,4.15-14.05,6.14-21.1.38-1.35.97-1.76,2.33-1.72,4.08.1,8.16.05,12.24.07.55,0,1.09.05,1.92.09Z"/>
  </g>
</svg>