<?xml version="1.0" encoding="UTF-8"?>
<svg id="_Слой_2" data-name="Слой_2" xmlns="http://www.w3.org/2000/svg" viewBox="0 0 103.75 104.64">
  <defs>
    <style>
      .cls-1 {
        fill: #fff;
      }

      .cls-2 {
        fill: #999;
      }
    </style>
  </defs>
  <g id="Low_x5F_buttons_x5F_base">
    <path d="M103.75,84.39v19.49c0,.42-.33.76-.75.76h-19.49c-.42,0-.76-.34-.76-.76v-4.03H21.02v4.03c0,.42-.34.76-.75.76H.77c-.41,0-.75-.34-.75-.76v-19.49c0-.41.34-.75.75-.75h3.08V21H.76c-.42,0-.76-.34-.76-.75V.75c0-.41.34-.75.76-.75h19.49c.42,0,.75.34.75.75v3.21h61.74V.75c0-.41.34-.75.75-.75h19.5c.41,0,.75.34.75.75v19.5c0,.41-.34.75-.75.75h-3.25v62.64h3.26c.42,0,.75.34.75.75Z"/>
    <g>
      <path class="cls-2" d="M15.3,5.91v2.35c0,.16-.13.3-.29.3h-.81v6.52c0,.17-.14.31-.31.31h-2.34c-.17,0-.31-.14-.31-.31V5.92c0-.17.14-.3.31-.3h3.46c.16,0,.29.13.29.29Z"/>
      <path class="cls-2" d="M10.45,11.51v2.41c0,.17-.13.3-.3.3h-.42v68.75c0,.16-.14.3-.3.3h-2.47c-.17,0-.3-.14-.3-.3V11.51c0-.16.13-.3.3-.3h3.19c.17,0,.3.14.3.3Z"/>
      <path class="cls-2" d="M19.18,2.86v7.42c0,.07-.06.13-.14.13h-2.44c-.08,0-.14-.06-.14-.13v-4.69c0-.53-.43-.95-.95-.95H5.89c-.52,0-.95.42-.95.95v9.66c0,.52.43.95.95.95h.04c.1,0,.18.08.18.18v2.37c0,.1-.08.18-.18.18h-2.76c-.52,0-.95-.43-.95-.95V2.86c0-.53.43-.95.95-.95h15.06c.52,0,.95.42.95.95Z"/>
      <path class="cls-2" d="M19.18,15.09v2.89c0,.52-.43.95-.95.95h-7.81c-.11,0-.2-.08-.2-.19v-2.34c0-.11.09-.2.2-.2h5.09c.52,0,.95-.43.95-.95v-.16c.02-.09.09-.15.19-.15h2.34c.1,0,.17.06.19.15Z"/>
      <path class="cls-2" d="M27.52,11.57v1.33c0,.08,0,.45-.03.9-.47,6.42-6.91,13.46-13.8,14.09-.94.09-1.71.04-2.1,0-.19,0-.35-.15-.35-.35v-7.82c0-.2.16-.36.35-.36h2.1c.19,0,.35.16.35.36v3.76c0,.4.32.72.72.72.05,0,.11-.01.16-.02.04-.01.08-.02.12-.04,4.52-1.2,8.06-4.82,9.16-9.39.01-.05.02-.11.02-.16,0-.32-.26-.58-.58-.58h-8.19c-.2,0-.36-.15-.36-.35v-2.09c0-.2.16-.36.36-.36h11.72c.19,0,.35.16.35.36Z"/>
      <path class="cls-2" d="M88.57,98v-2.35c0-.16.13-.3.29-.3h.81v-6.52c0-.17.14-.31.31-.31h2.34c.17,0,.31.14.31.31v9.16c0,.17-.14.3-.31.3h-3.46c-.16,0-.29-.13-.29-.29Z"/>
      <path class="cls-2" d="M93.42,92.4v-2.41c0-.17.13-.3.3-.3h.42V20.94c0-.16.14-.3.3-.3h2.47c.17,0,.3.14.3.3v71.46c0,.16-.13.3-.3.3h-3.19c-.17,0-.3-.14-.3-.3Z"/>
      <path class="cls-2" d="M84.69,101.05v-7.42c0-.07.06-.13.14-.13h2.44c.08,0,.14.06.14.13v4.69c0,.53.43.95.95.95h9.62c.52,0,.95-.42.95-.95v-9.66c0-.52-.43-.95-.95-.95h-.04c-.1,0-.18-.08-.18-.18v-2.37c0-.1.08-.18.18-.18h2.76c.52,0,.95.43.95.95v15.12c0,.53-.43.95-.95.95h-15.06c-.52,0-.95-.42-.95-.95Z"/>
      <path class="cls-2" d="M84.69,88.82v-2.89c0-.52.43-.95.95-.95h7.81c.11,0,.2.08.2.19v2.34c0,.11-.09.2-.2.2h-5.09c-.52,0-.95.43-.95.95v.16c-.02.09-.09.15-.19.15h-2.34c-.1,0-.17-.06-.19-.15Z"/>
      <path class="cls-2" d="M76.35,92.34v-1.33c0-.08,0-.45.03-.9.47-6.42,6.91-13.46,13.8-14.09.94-.09,1.71-.04,2.1,0,.19,0,.35.15.35.35v7.82c0,.2-.16.36-.35.36h-2.1c-.19,0-.35-.16-.35-.36v-3.76c0-.4-.32-.72-.72-.72-.05,0-.11.01-.16.02-.04.01-.08.02-.12.04-4.52,1.2-8.06,4.82-9.16,9.39-.01.05-.02.11-.02.16,0,.32.26.58.58.58h8.19c.2,0,.36.15.36.35v2.09c0,.2-.16.36-.36.36h-11.72c-.19,0-.35-.16-.35-.36Z"/>
      <path class="cls-2" d="M101.21,19.09h-7.42c-.07,0-.13-.06-.13-.14v-2.44c0-.08.06-.14.13-.14h4.69c.53,0,.95-.43.95-.95V5.8c0-.52-.42-.95-.95-.95h-9.66c-.52,0-.95.43-.95.95v.04c0,.1-.08.18-.18.18h-2.37c-.1,0-.18-.08-.18-.18v-2.76c0-.52.43-.95.95-.95h15.12c.53,0,.95.43.95.95v15.06c0,.52-.42.95-.95.95Z"/>
      <path class="cls-2" d="M92.87,10.45h-2.41c-.17,0-.3-.13-.3-.3v-.42H21.41c-.16,0-.3-.14-.3-.3v-2.47c0-.17.14-.3.3-.3h71.46c.16,0,.3.13.3.3v3.19c0,.17-.14.3-.3.3Z"/>
      <path class="cls-2" d="M97.77,15.39h-2.35c-.16,0-.3-.13-.3-.29v-.81h-6.52c-.17,0-.31-.14-.31-.31v-2.34c0-.17.14-.31.31-.31h9.16c.17,0,.3.14.3.31v3.46c0,.16-.13.29-.29.29Z"/>
      <path class="cls-2" d="M88.31,19.89h-2.89c-.52,0-.95-.43-.95-.95v-7.81c0-.11.08-.2.19-.2h2.34c.11,0,.2.09.2.2v5.09c0,.52.43.95.95.95h.16c.09.02.15.09.15.19v2.34c0,.1-.06.17-.15.19Z"/>
      <path class="cls-2" d="M91.83,28.23h-1.33c-.08,0-.45,0-.9-.03-6.42-.47-13.46-6.91-14.09-13.8-.09-.94-.04-1.71,0-2.1,0-.19.15-.35.35-.35h7.82c.2,0,.36.16.36.35v2.1c0,.19-.16.35-.36.35h-3.76c-.4,0-.72.32-.72.72,0,.05.01.11.02.16.01.04.02.08.04.12,1.2,4.52,4.82,8.06,9.39,9.16.05.01.11.02.16.02.32,0,.58-.26.58-.58v-8.19c0-.2.15-.36.35-.36h2.09c.2,0,.36.16.36.36v11.72c0,.19-.16.35-.36.35Z"/>
      <path class="cls-2" d="M3.17,85.89h7.42c.07,0,.13.06.13.14v2.44c0,.08-.06.14-.13.14h-4.69c-.53,0-.95.43-.95.95v9.62c0,.52.42.95.95.95h9.66c.52,0,.95-.43.95-.95v-.04c0-.1.08-.18.18-.18h2.37c.1,0,.18.08.18.18v2.76c0,.52-.43.95-.95.95H3.17c-.53,0-.95-.43-.95-.95v-15.06c0-.52.42-.95.95-.95Z"/>
      <path class="cls-2" d="M11.51,94.53h2.41c.17,0,.3.13.3.3v.42s68.75,0,68.75,0c.16,0,.3.14.3.3v2.47c0,.17-.14.3-.3.3H11.51c-.16,0-.3-.13-.3-.3v-3.19c0-.17.14-.3.3-.3Z"/>
      <path class="cls-2" d="M6.61,89.59h2.35c.16,0,.3.13.3.29v.81s6.52,0,6.52,0c.17,0,.31.14.31.31v2.34c0,.17-.14.31-.31.31H6.62c-.17,0-.3-.14-.3-.31v-3.46c0-.16.13-.29.29-.29Z"/>
      <path class="cls-2" d="M16.07,85.1h2.89c.52,0,.95.43.95.95v7.81c0,.11-.08.2-.19.2h-2.34c-.11,0-.2-.09-.2-.2v-5.09c0-.52-.43-.95-.95-.95h-.16c-.09-.02-.15-.09-.15-.19v-2.34c0-.1.06-.17.15-.19Z"/>
      <path class="cls-2" d="M12.55,76.76h1.33c.08,0,.45,0,.9.03,6.42.47,13.46,6.91,14.09,13.8.09.94.04,1.71,0,2.1,0,.19-.15.35-.35.35h-7.82c-.2,0-.36-.16-.36-.35v-2.1c0-.19.16-.35.36-.35h3.76c.4,0,.72-.32.72-.72,0-.05-.01-.11-.02-.16-.01-.04-.02-.08-.04-.12-1.2-4.52-4.82-8.06-9.39-9.16-.05-.01-.11-.02-.16-.02-.32,0-.58.26-.58.58v8.19c0,.2-.15.36-.35.36h-2.09c-.2,0-.36-.16-.36-.36v-11.72c0-.19.16-.35.36-.35Z"/>
    </g>
  </g>
  <g id="Low_x5F_buttens_x5F_icons">
    <path class="cls-1" d="M66.96,23.98c1.88.38,2.74,1.65,3.2,3.41.77,3,1.66,5.98,2.48,8.97.18.65.52,1.06,1.19,1.24,1.18.33,2.02,1.09,2.59,2.17,1.38,2.63,2.27,5.4,2.63,8.35.03.23.03.49.15.67.85,1.3,1.05,2.78,1.34,4.25.27,1.39.62,2.76.95,4.13.24.96.12,1.76-.65,2.48-.35.32-.47.88-.71,1.32-.11.22-.25.42-.45.75-.14-.29-.23-.44-.29-.6-1.08-3.02-2.15-6.04-3.22-9.06-.06-.18-.13-.36-.2-.53-.43-1.01-.93-1.29-1.99-1.02-1.57.4-3.14.85-4.71,1.26-.88.23-1.76.46-2.65.61-1.61.27-3.11-.09-4.49-.95-.82-.51-1.6-1.1-2.4-1.64-.19-.13-.42-.2-.63-.3.08-.11.16-.21.25-.32.25.06.52.07.75.18.53.25,1.08.5,1.57.82,1.6,1.09,3.31,1.24,5.15.74,2.85-.78,5.71-1.52,8.57-2.25.55-.14,1.13-.16,1.69-.23.7-.08.91-.34.61-.95-1.19-2.47-2.4-4.93-3.63-7.38-.34-.68-.97-1.02-1.73-.93-2.28.27-4.57.55-6.85.87-.93.13-1.7.63-2.3,1.35-1.04,1.25-2.09,2.49-3.1,3.76-.3.37-.48.84-.74,1.24-.19.29-.42.55-.63.82-.09-.02-.18-.04-.27-.06-.02-.37-.12-.75-.04-1.09.08-.35.29-.71.53-.99,1.14-1.39,2.31-2.75,3.46-4.12.79-.94,1.83-1.49,2.97-1.84,1.13-.34,2.28-.62,3.42-.93.85-.23.99-.45.68-1.26-.83-2.15-1.65-4.29-2.52-6.42-.29-.72-.68-1.42-1.14-2.04-.38-.51-.88-1.02-1.44-1.29-1.37-.64-2.86-.91-4.37-.77-2.88.26-5.75.59-8.63.88-2.42.25-4.85.38-7.24.76-1.95.31-3.85.94-5.79,1.37-1.87.42-3.76.76-5.65,1.14-1.18.24-1.38.56-1,1.7.36,1.1.71,2.21,1.07,3.31.26.8.48.9,1.32.73,2.93-.62,5.86-1.26,8.8-1.84,1.68-.33,3.33-.09,4.91.54.46.19.92.55,1.22.94.53.69.36,1.45-.27,2.04-.51.47-.94,1.04-1.49,1.45-.65.48-1.34,1.01-2.09,1.22-2.26.62-4.55,1.12-6.83,1.63-.59.13-1.21.16-1.82.2-.13,0-.28-.11-.42-.17.1-.13.18-.34.31-.38.96-.33,1.92-.64,2.89-.93,1.74-.53,3.48-1.03,5.21-1.56,1.25-.38,2.21-1.11,2.83-2.28.41-.78.3-1.21-.56-1.42-.78-.19-1.64-.32-2.42-.19-3.21.5-6.4,1.1-9.6,1.68-.68.12-1.35.34-2.02.51-.93.23-1.58.87-2.15,1.59-1.59,2-2.63,4.27-3.31,6.71-.51,1.8-.97,3.62-1.38,5.45-.25,1.13.02,2.24.55,3.25.33.65.19,1.16-.37,1.8-.27-.35-.62-.63-.73-.98-1.12-3.58-2.21-7.17-3.3-10.76-.14-.46-.21-.94-.31-1.41,0-.38,0-.76,0-1.14.02-.08.06-.15.07-.23.28-2.87,1.17-5.56,2.37-8.16.09-.2.11-.45.13-.68.07-.81.39-1.49.97-2.07,1.39-1.4,3.27-1.89,4.99-2.67.13-.06.29-.07.43-.09,5.85-.69,11.69-1.38,17.54-2.05,4.02-.46,8.06-.82,12.07-1.3,1.94-.24,3.86-.66,5.79-1,.3,0,.59,0,.89,0ZM24.45,49.07c.14-.32.34-.62.42-.95.69-3.17,2.05-6.02,4.06-8.56.69-.87.87-1.8.49-2.84-.08-.22-.14-.44-.21-.66-.53-1.66-1.37-3.24-1.34-5.05,0-.12-.15-.35-.2-.34-.19.04-.44.1-.53.24-.65,1.01-1.4,1.98-1.86,3.07-.7,1.69-1.21,3.46-1.78,5.21-1.11,3.39-.64,6.66.94,9.9ZM69.04,29.89c-.35-1.64-.64-3.32-2.27-4.23-1.3-.73-2.64-.74-4.01.09,2.69.49,4.62,2.08,6.28,4.14Z"/>
    <path class="cls-1" d="M42.62,79.18c.03-.46-.04-.95.1-1.37.64-1.99,1.36-3.95,2.01-5.93.09-.27-.03-.61-.05-.92-.33.07-.72.05-.97.24-.34.25-.66.62-.82,1.01-1.13,2.57-2.23,5.15-3.29,7.74-.2.5-.17,1.08-.34,1.6-.13.41-.33,1-.64,1.11-.31.11-.89-.17-1.18-.46-1.71-1.71-2.93-3.74-3.78-6.01-.22-.6-.6-1.14-.9-1.72-.32-.61-.63-1.22-.86-1.88.71.04.81.75,1.35,1.09.2-.35.43-.69.61-1.05,1.67-3.48,3.31-6.97,5.45-10.2.45-.68,1.01-1.06,1.82-1.22,3.04-.6,6.08-1.26,9.11-1.89,1.29-.27,2.25-1.12,3.32-1.79.29-.18.67-.24,1-.35-.08.36-.08.77-.25,1.08-.74,1.38-1.88,2.09-3.48,2.28-2.41.28-4.8.73-7.19,1.14-.84.14-.99.44-.64,1.23.54,1.21,1.09,2.42,1.65,3.63.38.81.71,1,1.59.92,1.89-.17,3.78-.36,5.68-.51,4.14-.34,8.29-.63,12.43-1.02,3.7-.35,7.39-.76,11.07-1.25,2.01-.27,3.75-1.26,5.23-2.66.29-.28.49-.68.66-1.06.26-.59.64-1.01,1.3-1.05.64-.04,1.13.31,1.39.83.78,1.53,1.25,3.14,1.05,4.88-.12,1.09-.74,1.84-1.82,2.1-.76.18-1.53.38-2.3.37-4.95-.03-9.86.42-14.77,1-5.93.7-11.89,1.13-17.84,1.67-.48.04-.97.06-1.45.09-.4.03-.72.18-.69.64.02.44.33.63.73.62,1.2-.02,2.41-.02,3.6-.12,4.73-.4,9.46-.86,14.19-1.24,4.54-.37,9.09-.68,13.64-1,.65-.05,1.31,0,1.96.06.17.01.4.17.47.32.05.09-.11.38-.24.45-.42.22-.86.52-1.31.56-3.93.37-7.86.74-11.8,1.02-4.59.33-9.19.54-13.78.89-2.04.16-4.06.52-6.09.82-1.05.15-1.74.78-2.21,1.71-.49.96-.99,1.91-1.54,2.83-.21.35-.59.6-.9.89-.09-.04-.18-.07-.27-.11ZM37.66,78.9c.2-.33.38-.59.51-.87,1.03-2.17,2.07-4.34,3.09-6.52.38-.82.62-1.69.42-2.58-.26-1.15-.61-2.28-.93-3.41-.14-.49-.48-.62-.85-.28-.49.45-1.02.91-1.34,1.48-1.17,2.15-2.26,4.34-3.38,6.51-.28.55-.3,1.09,0,1.63.66,1.15,1.32,2.31,1.99,3.46.11.19.29.34.49.58ZM78.73,66.93c0,.06,0,.12,0,.19.14.05.28.14.42.14,1.01-.06,2.02-.11,3.03-.22.57-.07.94-.47,1.1-1.01.27-.92.06-1.77-.49-2.69-.96,1.73-2.52,2.66-4.07,3.6Z"/>
    <path class="cls-1" d="M31.25,70.01c-.24-.47-.42-.75-.53-1.06-1.1-3.19-2.19-6.38-3.26-9.58-.09-.28-.1-.62-.07-.91.52-3.9,2.12-7.44,3.72-10.98.5-1.11,1-2.23,1.49-3.35.04-.1.08-.2.13-.29.39-.72.96-1.22,1.8-1.18.81.04,1.15.67,1.41,1.35,1.07,2.79,2.15,5.58,3.24,8.37.16.41.38.8.57,1.2.43.93.59.99,1.57.73,2.57-.68,5.14-1.37,7.71-2.03,2.61-.67,4.73.17,6.47,2.14.11.13.21.26.29.41.22.42.11.84-.25,1.06-.23.13-.67.13-.89-.02-.55-.35-1.04-.79-1.52-1.23-.85-.77-1.81-1.11-2.96-.91-3.37.59-6.73,1.16-10.1,1.74-.85.15-1.45.62-1.89,1.35-1.01,1.68-2.02,3.36-3.06,5.02-.99,1.58-1.73,3.27-2.29,5.05-.23.74-.55,1.46-.88,2.16-.13.29-.39.53-.7.94ZM33.44,46.34c-.07,0-.14-.01-.21-.02-.4.86-.79,1.71-1.19,2.57-1.25,2.72-2.52,5.43-3.06,8.41-.23,1.25-.5,2.48.03,3.73.57,1.32,1.09,2.65,1.64,3.97.06.14.18.24.35.47.25-.42.45-.73.61-1.06,1.3-2.71,2.82-5.29,4.64-7.67.5-.65.56-1.26.29-2-.78-2.12-1.53-4.24-2.31-6.36-.25-.69-.53-1.36-.8-2.04Z"/>
    <path class="cls-1" d="M80.08,75.52c-.54.37-1.05.81-1.64,1.09-.74.36-1.35.82-1.85,1.48-.27.36-.64.68-1.03.91-1.37.8-2.88,1.22-4.45,1.35-4.84.41-9.67.89-14.52,1.14-4.48.23-8.9.92-13.33,1.49-.65.08-1.3.15-1.94.26-.47.08-.88.04-1.05-.44-.15-.44.28-1.01.82-1.1.92-.15,1.83-.3,2.76-.39,3.53-.32,7.06-.6,10.59-.93,5.67-.53,11.35-1.02,17.01-1.66,1.5-.17,2.96-.8,4.43-1.22.07-.02.12-.1.31-.25-.3-.06-.48-.13-.65-.13-3.88.17-7.76.37-11.64.53-4.07.17-8.14.29-12.21.44-1.45.05-2.91.14-4.36.2-.47.02-.94,0-1.41,0-.02-.11-.04-.21-.06-.32.24-.08.48-.22.73-.24,2.34-.18,4.67-.33,7.01-.51,3.01-.23,6.01-.51,9.02-.72,3.52-.25,7.04-.42,10.55-.69,1.85-.14,3.69-.44,5.53-.64.42-.04.85.05,1.28.08.03.09.06.18.09.26Z"/>
    <path class="cls-1" d="M47.97,75.44c.76-.11,1.52-.25,2.29-.32,5.17-.49,10.34-.92,15.51-1.46,5.25-.55,10.48-1.22,15.72-1.83.32-.04.66,0,1.07.14-.27.23-.53.49-.83.67-2.62,1.62-5.51,2.31-8.55,2.44-5.91.25-11.81.5-17.72.7-2.32.08-4.65.02-6.97.01-.17,0-.35-.06-.52-.1,0-.08,0-.17,0-.25Z"/>
    <path class="cls-1" d="M66.14,47.51c-.9,0-1.78-.82-1.77-1.66,0-.77.88-1.56,1.72-1.56,1.02,0,1.71.71,1.7,1.72-.01.84-.74,1.5-1.65,1.49Z"/>
    <path class="cls-1" d="M51.16,55.43c.57.01.91.42.9,1.06,0,.62-.4,1.11-.89,1.1-.52,0-1.08-.6-1.07-1.13,0-.57.5-1.04,1.06-1.03Z"/>
    <path class="cls-1" d="M44.56,38.45c-.51.02-1.03-.49-1.03-1,0-.51.4-.9.93-.92.55-.02,1.14.44,1.13.88,0,.46-.57,1.02-1.04,1.04Z"/>
    <path class="cls-1" d="M40.28,60.02c-.1.13-.18.32-.26.33-.16.01-.41-.03-.49-.14-.24-.34-.47-.7-.61-1.09-.05-.14.1-.43.25-.54.1-.07.45,0,.51.1.23.41.4.87.6,1.34Z"/>
    <path class="cls-1" d="M32.12,39.77c.17.41.33.82.5,1.24-.07.04-.14.07-.21.11-.39-.29-.36-.8-.54-1.21.08-.05.17-.09.25-.14Z"/>
  </g>
</svg>