<?xml version="1.0" encoding="UTF-8"?>
<svg id="_Слой_2" data-name="Слой_2" xmlns="http://www.w3.org/2000/svg" viewBox="0 0 103.75 104.64">
  <defs>
    <style>
      .cls-1, .cls-2 {
        fill: #fff;
      }

      .cls-3 {
        letter-spacing: 0em;
      }

      .cls-4 {
        fill: #999;
      }

      .cls-2 {
        font-family: Bahnschrift, Bahnschrift;
        font-size: 10px;
        font-variation-settings: 'wght' 400, 'wdth' 100;
      }
    </style>
  </defs>
  <g id="Low_x5F_buttons_x5F_base">
    <path d="M103.75,84.39v19.49c0,.42-.33.76-.75.76h-19.49c-.42,0-.76-.34-.76-.76v-4.03H21.02v4.03c0,.42-.34.76-.75.76H.77c-.41,0-.75-.34-.75-.76v-19.49c0-.41.34-.75.75-.75h3.08V21H.76c-.42,0-.76-.34-.76-.75V.75c0-.41.34-.75.76-.75h19.49c.42,0,.75.34.75.75v3.21h61.74V.75c0-.41.34-.75.75-.75h19.5c.41,0,.75.34.75.75v19.5c0,.41-.34.75-.75.75h-3.25v62.64h3.26c.42,0,.75.34.75.75Z"/>
    <path class="cls-1" d="M10.83,16.4v2.34c0,.11-.09.19-.2.19h-.21c-.11,0-.2-.08-.2-.19v-2.34c0-.11.09-.2.2-.2h.21c.11,0,.2.09.2.2Z"/>
    <g>
      <path class="cls-4" d="M15.3,5.91v2.35c0,.16-.13.3-.29.3h-.81v6.52c0,.17-.14.31-.31.31h-2.34c-.17,0-.31-.14-.31-.31V5.92c0-.17.14-.3.31-.3h3.46c.16,0,.29.13.29.29Z"/>
      <path class="cls-4" d="M10.45,11.51v2.41c0,.17-.13.3-.3.3h-.42v68.75c0,.16-.14.3-.3.3h-2.47c-.17,0-.3-.14-.3-.3V11.51c0-.16.13-.3.3-.3h3.19c.17,0,.3.14.3.3Z"/>
      <path class="cls-4" d="M19.18,2.86v7.42c0,.07-.06.13-.14.13h-2.44c-.08,0-.14-.06-.14-.13v-4.69c0-.53-.43-.95-.95-.95H5.89c-.52,0-.95.42-.95.95v9.66c0,.52.43.95.95.95h.04c.1,0,.18.08.18.18v2.37c0,.1-.08.18-.18.18h-2.76c-.52,0-.95-.43-.95-.95V2.86c0-.53.43-.95.95-.95h15.06c.52,0,.95.42.95.95Z"/>
      <path class="cls-4" d="M19.18,15.09v2.89c0,.52-.43.95-.95.95h-7.81c-.11,0-.2-.08-.2-.19v-2.34c0-.11.09-.2.2-.2h5.09c.52,0,.95-.43.95-.95v-.16c.02-.09.09-.15.19-.15h2.34c.1,0,.17.06.19.15Z"/>
      <path class="cls-4" d="M27.52,11.57v1.33c0,.08,0,.45-.03.9-.47,6.42-6.91,13.46-13.8,14.09-.94.09-1.71.04-2.1,0-.19,0-.35-.15-.35-.35v-7.82c0-.2.16-.36.35-.36h2.1c.19,0,.35.16.35.36v3.76c0,.4.32.72.72.72.05,0,.11-.01.16-.02.04-.01.08-.02.12-.04,4.52-1.2,8.06-4.82,9.16-9.39.01-.05.02-.11.02-.16,0-.32-.26-.58-.58-.58h-8.19c-.2,0-.36-.15-.36-.35v-2.09c0-.2.16-.36.36-.36h11.72c.19,0,.35.16.35.36Z"/>
      <path class="cls-4" d="M88.57,98v-2.35c0-.16.13-.3.29-.3h.81v-6.52c0-.17.14-.31.31-.31h2.34c.17,0,.31.14.31.31v9.16c0,.17-.14.3-.31.3h-3.46c-.16,0-.29-.13-.29-.29Z"/>
      <path class="cls-4" d="M93.42,92.4v-2.41c0-.17.13-.3.3-.3h.42V20.94c0-.16.14-.3.3-.3h2.47c.17,0,.3.14.3.3v71.46c0,.16-.13.3-.3.3h-3.19c-.17,0-.3-.14-.3-.3Z"/>
      <path class="cls-4" d="M84.69,101.05v-7.42c0-.07.06-.13.14-.13h2.44c.08,0,.14.06.14.13v4.69c0,.53.43.95.95.95h9.62c.52,0,.95-.42.95-.95v-9.66c0-.52-.43-.95-.95-.95h-.04c-.1,0-.18-.08-.18-.18v-2.37c0-.1.08-.18.18-.18h2.76c.52,0,.95.43.95.95v15.12c0,.53-.43.95-.95.95h-15.06c-.52,0-.95-.42-.95-.95Z"/>
      <path class="cls-4" d="M84.69,88.82v-2.89c0-.52.43-.95.95-.95h7.81c.11,0,.2.08.2.19v2.34c0,.11-.09.2-.2.2h-5.09c-.52,0-.95.43-.95.95v.16c-.02.09-.09.15-.19.15h-2.34c-.1,0-.17-.06-.19-.15Z"/>
      <path class="cls-4" d="M76.35,92.34v-1.33c0-.08,0-.45.03-.9.47-6.42,6.91-13.46,13.8-14.09.94-.09,1.71-.04,2.1,0,.19,0,.35.15.35.35v7.82c0,.2-.16.36-.35.36h-2.1c-.19,0-.35-.16-.35-.36v-3.76c0-.4-.32-.72-.72-.72-.05,0-.11.01-.16.02-.04.01-.08.02-.12.04-4.52,1.2-8.06,4.82-9.16,9.39-.01.05-.02.11-.02.16,0,.32.26.58.58.58h8.19c.2,0,.36.15.36.35v2.09c0,.2-.16.36-.36.36h-11.72c-.19,0-.35-.16-.35-.36Z"/>
      <path class="cls-4" d="M101.21,19.09h-7.42c-.07,0-.13-.06-.13-.14v-2.44c0-.08.06-.14.13-.14h4.69c.53,0,.95-.43.95-.95V5.8c0-.52-.42-.95-.95-.95h-9.66c-.52,0-.95.43-.95.95v.04c0,.1-.08.18-.18.18h-2.37c-.1,0-.18-.08-.18-.18v-2.76c0-.52.43-.95.95-.95h15.12c.53,0,.95.43.95.95v15.06c0,.52-.42.95-.95.95Z"/>
      <path class="cls-4" d="M92.87,10.45h-2.41c-.17,0-.3-.13-.3-.3v-.42H21.41c-.16,0-.3-.14-.3-.3v-2.47c0-.17.14-.3.3-.3h71.46c.16,0,.3.13.3.3v3.19c0,.17-.14.3-.3.3Z"/>
      <path class="cls-4" d="M97.77,15.39h-2.35c-.16,0-.3-.13-.3-.29v-.81h-6.52c-.17,0-.31-.14-.31-.31v-2.34c0-.17.14-.31.31-.31h9.16c.17,0,.3.14.3.31v3.46c0,.16-.13.29-.29.29Z"/>
      <path class="cls-4" d="M88.31,19.89h-2.89c-.52,0-.95-.43-.95-.95v-7.81c0-.11.08-.2.19-.2h2.34c.11,0,.2.09.2.2v5.09c0,.52.43.95.95.95h.16c.09.02.15.09.15.19v2.34c0,.1-.06.17-.15.19Z"/>
      <path class="cls-4" d="M91.83,28.23h-1.33c-.08,0-.45,0-.9-.03-6.42-.47-13.46-6.91-14.09-13.8-.09-.94-.04-1.71,0-2.1,0-.19.15-.35.35-.35h7.82c.2,0,.36.16.36.35v2.1c0,.19-.16.35-.36.35h-3.76c-.4,0-.72.32-.72.72,0,.05.01.11.02.16.01.04.02.08.04.12,1.2,4.52,4.82,8.06,9.39,9.16.05.01.11.02.16.02.32,0,.58-.26.58-.58v-8.19c0-.2.15-.36.35-.36h2.09c.2,0,.36.16.36.36v11.72c0,.19-.16.35-.36.35Z"/>
      <path class="cls-4" d="M3.17,85.89h7.42c.07,0,.13.06.13.14v2.44c0,.08-.06.14-.13.14h-4.69c-.53,0-.95.43-.95.95v9.62c0,.52.42.95.95.95h9.66c.52,0,.95-.43.95-.95v-.04c0-.1.08-.18.18-.18h2.37c.1,0,.18.08.18.18v2.76c0,.52-.43.95-.95.95H3.17c-.53,0-.95-.43-.95-.95v-15.06c0-.52.42-.95.95-.95Z"/>
      <path class="cls-4" d="M11.51,94.53h2.41c.17,0,.3.13.3.3v.42s68.75,0,68.75,0c.16,0,.3.14.3.3v2.47c0,.17-.14.3-.3.3H11.51c-.16,0-.3-.13-.3-.3v-3.19c0-.17.14-.3.3-.3Z"/>
      <path class="cls-4" d="M6.61,89.59h2.35c.16,0,.3.13.3.29v.81s6.52,0,6.52,0c.17,0,.31.14.31.31v2.34c0,.17-.14.31-.31.31H6.62c-.17,0-.3-.14-.3-.31v-3.46c0-.16.13-.29.29-.29Z"/>
      <path class="cls-4" d="M16.07,85.1h2.89c.52,0,.95.43.95.95v7.81c0,.11-.08.2-.19.2h-2.34c-.11,0-.2-.09-.2-.2v-5.09c0-.52-.43-.95-.95-.95h-.16c-.09-.02-.15-.09-.15-.19v-2.34c0-.1.06-.17.15-.19Z"/>
      <path class="cls-4" d="M12.55,76.76h1.33c.08,0,.45,0,.9.03,6.42.47,13.46,6.91,14.09,13.8.09.94.04,1.71,0,2.1,0,.19-.15.35-.35.35h-7.82c-.2,0-.36-.16-.36-.35v-2.1c0-.19.16-.35.36-.35h3.76c.4,0,.72-.32.72-.72,0-.05-.01-.11-.02-.16-.01-.04-.02-.08-.04-.12-1.2-4.52-4.82-8.06-9.39-9.16-.05-.01-.11-.02-.16-.02-.32,0-.58.26-.58.58v8.19c0,.2-.15.36-.35.36h-2.09c-.2,0-.36-.16-.36-.36v-11.72c0-.19.16-.35.36-.35Z"/>
    </g>
  </g>
  <g id="Low_x5F_buttens_x5F_icons">
    <g>
      <path class="cls-1" d="M40.45,67.05c-5.28,0-10.57,0-15.85,0-3.55,0-5.41-1.88-5.41-5.45,0-9.31,0-18.62,0-27.93,0-3.47,1.89-5.35,5.37-5.36,6.33,0,12.66-.06,18.99.02,3.58.05,6.92,1.06,9.84,3.21,2.29,1.68,2.28,1.67,4.65.06,9.23-6.26,23.33-3.81,28.62,7.3,4.56,9.58,1.44,21.24-8.71,26.25-4.82,2.38-9.96,2.57-15.12.97-1.15-.36-2.13-.33-3.24.3-.81.46-1.9.6-2.87.6-5.43.05-10.85.03-16.28.03ZM57.58,57.09c8.25,8.74,18.96,5.29,23.25-.25,4.68-6.04,4.27-15.1-2.34-20.69-4.96-4.2-16.58-5.72-22.64,4.54-1.36-1.45-2.66-3.03-4.15-4.39-2.16-1.97-4.75-3.23-7.7-3.27-6.24-.09-12.48,0-18.72-.04-1.04,0-1.41.31-1.41,1.38.03,8.89.03,17.77,0,26.66,0,.97.3,1.33,1.31,1.33,10.38-.03,20.76-.02,31.15,0,.91,0,1.3-.29,1.26-1.23-.05-1.21-.01-2.43-.01-4.04Z"/>
      <text class="cls-2" transform="translate(20.63 77.96)"><tspan x="0" y="0">Mod O</tspan><tspan class="cls-3" x="27.77" y="0">r</tspan><tspan x="31.94" y="0">ganizer</tspan></text>
    </g>
  </g>
</svg>