<?xml version="1.0" encoding="UTF-8"?>
<svg xmlns="http://www.w3.org/2000/svg" xmlns:xlink="http://www.w3.org/1999/xlink" width="px" height="px" viewBox="0 0 52 52" version="1.1">
<g id="surface1">
<path style=" stroke:none;fill-rule:nonzero;fill:rgb(100%,100%,100%);fill-opacity:1;" d="M 0 0.0273438 L 50.121094 0.0273438 L 50.121094 49.667969 L 0 49.667969 Z M 0 0.0273438 "/>
<path style=" stroke:none;fill-rule:nonzero;fill:rgb(0%,0%,0%);fill-opacity:1;" d="M 52 41.921875 L 52 51.597656 C 52 51.804688 51.835938 51.972656 51.625 51.972656 L 41.855469 51.972656 C 41.644531 51.972656 41.476562 51.804688 41.476562 51.597656 L 41.476562 49.59375 L 10.535156 49.59375 L 10.535156 51.597656 C 10.535156 51.804688 10.363281 51.972656 10.160156 51.972656 L 0.386719 51.972656 C 0.179688 51.972656 0.0117188 51.804688 0.0117188 51.597656 L 0.0117188 41.921875 C 0.0117188 41.71875 0.179688 41.546875 0.386719 41.546875 L 1.929688 41.546875 L 1.929688 10.453125 L 0.382812 10.453125 C 0.171875 10.453125 0 10.28125 0 10.078125 L 0 0.398438 C 0 0.195312 0.171875 0.0273438 0.382812 0.0273438 L 10.148438 0.0273438 C 10.359375 0.0273438 10.523438 0.195312 10.523438 0.398438 L 10.523438 1.992188 L 41.46875 1.992188 L 41.46875 0.398438 C 41.46875 0.195312 41.640625 0.0273438 41.84375 0.0273438 L 51.617188 0.0273438 C 51.824219 0.0273438 51.996094 0.195312 51.996094 0.398438 L 51.996094 10.078125 C 51.996094 10.28125 51.824219 10.453125 51.617188 10.453125 L 49.988281 10.453125 L 49.988281 41.546875 L 51.625 41.546875 C 51.835938 41.546875 52 41.71875 52 41.921875 Z M 52 41.921875 "/>
<path style=" stroke:none;fill-rule:nonzero;fill:rgb(100%,100%,100%);fill-opacity:1;" d="M 5.429688 8.167969 L 5.429688 9.328125 C 5.429688 9.382812 5.382812 9.425781 5.328125 9.425781 L 5.222656 9.425781 C 5.167969 9.425781 5.121094 9.382812 5.121094 9.328125 L 5.121094 8.167969 C 5.121094 8.113281 5.167969 8.070312 5.222656 8.070312 L 5.328125 8.070312 C 5.382812 8.070312 5.429688 8.113281 5.429688 8.167969 Z M 5.429688 8.167969 "/>
<path style=" stroke:none;fill-rule:nonzero;fill:rgb(60%,60%,60%);fill-opacity:1;" d="M 7.667969 2.960938 L 7.667969 4.128906 C 7.667969 4.207031 7.601562 4.277344 7.523438 4.277344 L 7.117188 4.277344 L 7.117188 7.511719 C 7.117188 7.597656 7.046875 7.667969 6.960938 7.667969 L 5.789062 7.667969 C 5.703125 7.667969 5.632812 7.597656 5.632812 7.511719 L 5.632812 2.964844 C 5.632812 2.882812 5.703125 2.816406 5.789062 2.816406 L 7.523438 2.816406 C 7.601562 2.816406 7.667969 2.882812 7.667969 2.960938 Z M 7.667969 2.960938 "/>
<path style=" stroke:none;fill-rule:nonzero;fill:rgb(60%,60%,60%);fill-opacity:1;" d="M 5.238281 5.742188 L 5.238281 6.9375 C 5.238281 7.019531 5.171875 7.085938 5.085938 7.085938 L 4.875 7.085938 L 4.875 41.214844 C 4.875 41.296875 4.804688 41.363281 4.726562 41.363281 L 3.488281 41.363281 C 3.402344 41.363281 3.339844 41.296875 3.339844 41.214844 L 3.339844 5.742188 C 3.339844 5.660156 3.402344 5.589844 3.488281 5.589844 L 5.085938 5.589844 C 5.171875 5.589844 5.238281 5.660156 5.238281 5.742188 Z M 5.238281 5.742188 "/>
<path style=" stroke:none;fill-rule:nonzero;fill:rgb(60%,60%,60%);fill-opacity:1;" d="M 9.613281 1.445312 L 9.613281 5.128906 C 9.613281 5.164062 9.582031 5.195312 9.542969 5.195312 L 8.320312 5.195312 C 8.28125 5.195312 8.25 5.164062 8.25 5.128906 L 8.25 2.800781 C 8.25 2.539062 8.035156 2.332031 7.773438 2.332031 L 2.953125 2.332031 C 2.691406 2.332031 2.476562 2.539062 2.476562 2.800781 L 2.476562 7.597656 C 2.476562 7.855469 2.691406 8.070312 2.953125 8.070312 L 2.972656 8.070312 C 3.023438 8.070312 3.0625 8.109375 3.0625 8.160156 L 3.0625 9.335938 C 3.0625 9.382812 3.023438 9.425781 2.972656 9.425781 L 1.589844 9.425781 C 1.328125 9.425781 1.113281 9.210938 1.113281 8.953125 L 1.113281 1.445312 C 1.113281 1.183594 1.328125 0.976562 1.589844 0.976562 L 9.136719 0.976562 C 9.398438 0.976562 9.613281 1.183594 9.613281 1.445312 Z M 9.613281 1.445312 "/>
<path style=" stroke:none;fill-rule:nonzero;fill:rgb(60%,60%,60%);fill-opacity:1;" d="M 9.613281 7.519531 L 9.613281 8.953125 C 9.613281 9.210938 9.398438 9.425781 9.136719 9.425781 L 5.222656 9.425781 C 5.167969 9.425781 5.121094 9.382812 5.121094 9.328125 L 5.121094 8.167969 C 5.121094 8.113281 5.167969 8.070312 5.222656 8.070312 L 7.773438 8.070312 C 8.035156 8.070312 8.25 7.855469 8.25 7.597656 L 8.25 7.519531 C 8.261719 7.472656 8.296875 7.445312 8.34375 7.445312 L 9.519531 7.445312 C 9.566406 7.445312 9.601562 7.472656 9.613281 7.519531 Z M 9.613281 7.519531 "/>
<path style=" stroke:none;fill-rule:nonzero;fill:rgb(60%,60%,60%);fill-opacity:1;" d="M 13.792969 5.769531 L 13.792969 6.429688 C 13.792969 6.46875 13.792969 6.652344 13.777344 6.878906 C 13.542969 10.066406 10.316406 13.558594 6.863281 13.871094 C 6.390625 13.917969 6.003906 13.890625 5.808594 13.871094 C 5.714844 13.871094 5.632812 13.796875 5.632812 13.699219 L 5.632812 9.816406 C 5.632812 9.71875 5.714844 9.636719 5.808594 9.636719 L 6.863281 9.636719 C 6.957031 9.636719 7.035156 9.71875 7.035156 9.816406 L 7.035156 11.683594 C 7.035156 11.882812 7.199219 12.039062 7.398438 12.039062 C 7.421875 12.039062 7.453125 12.035156 7.476562 12.03125 C 7.496094 12.027344 7.519531 12.019531 7.539062 12.011719 C 9.804688 11.414062 11.578125 9.617188 12.128906 7.347656 C 12.132812 7.324219 12.140625 7.292969 12.140625 7.269531 C 12.140625 7.109375 12.007812 6.980469 11.847656 6.980469 L 7.742188 6.980469 C 7.644531 6.980469 7.5625 6.90625 7.5625 6.808594 L 7.5625 5.769531 C 7.5625 5.671875 7.644531 5.589844 7.742188 5.589844 L 13.617188 5.589844 C 13.714844 5.589844 13.792969 5.671875 13.792969 5.769531 Z M 13.792969 5.769531 "/>
<path style=" stroke:none;fill-rule:nonzero;fill:rgb(60%,60%,60%);fill-opacity:1;" d="M 44.390625 48.675781 L 44.390625 47.511719 C 44.390625 47.429688 44.457031 47.363281 44.535156 47.363281 L 44.941406 47.363281 L 44.941406 44.125 C 44.941406 44.039062 45.011719 43.972656 45.097656 43.972656 L 46.269531 43.972656 C 46.355469 43.972656 46.425781 44.039062 46.425781 44.125 L 46.425781 48.671875 C 46.425781 48.757812 46.355469 48.820312 46.269531 48.820312 L 44.535156 48.820312 C 44.457031 48.820312 44.390625 48.757812 44.390625 48.675781 Z M 44.390625 48.675781 "/>
<path style=" stroke:none;fill-rule:nonzero;fill:rgb(60%,60%,60%);fill-opacity:1;" d="M 46.824219 45.898438 L 46.824219 44.699219 C 46.824219 44.617188 46.886719 44.550781 46.972656 44.550781 L 47.183594 44.550781 L 47.183594 10.421875 C 47.183594 10.34375 47.253906 10.273438 47.332031 10.273438 L 48.570312 10.273438 C 48.65625 10.273438 48.722656 10.34375 48.722656 10.421875 L 48.722656 45.898438 C 48.722656 45.976562 48.65625 46.046875 48.570312 46.046875 L 46.972656 46.046875 C 46.886719 46.046875 46.824219 45.976562 46.824219 45.898438 Z M 46.824219 45.898438 "/>
<path style=" stroke:none;fill-rule:nonzero;fill:rgb(60%,60%,60%);fill-opacity:1;" d="M 42.445312 50.191406 L 42.445312 46.507812 C 42.445312 46.472656 42.476562 46.441406 42.515625 46.441406 L 43.738281 46.441406 C 43.78125 46.441406 43.808594 46.472656 43.808594 46.507812 L 43.808594 48.835938 C 43.808594 49.097656 44.027344 49.308594 44.285156 49.308594 L 49.109375 49.308594 C 49.367188 49.308594 49.585938 49.097656 49.585938 48.835938 L 49.585938 44.039062 C 49.585938 43.78125 49.367188 43.570312 49.109375 43.570312 L 49.089844 43.570312 C 49.039062 43.570312 48.996094 43.527344 48.996094 43.480469 L 48.996094 42.304688 C 48.996094 42.253906 49.039062 42.214844 49.089844 42.214844 L 50.472656 42.214844 C 50.730469 42.214844 50.949219 42.425781 50.949219 42.683594 L 50.949219 50.191406 C 50.949219 50.453125 50.730469 50.664062 50.472656 50.664062 L 42.921875 50.664062 C 42.664062 50.664062 42.445312 50.453125 42.445312 50.191406 Z M 42.445312 50.191406 "/>
<path style=" stroke:none;fill-rule:nonzero;fill:rgb(60%,60%,60%);fill-opacity:1;" d="M 42.445312 44.121094 L 42.445312 42.683594 C 42.445312 42.425781 42.664062 42.214844 42.921875 42.214844 L 46.835938 42.214844 C 46.894531 42.214844 46.9375 42.253906 46.9375 42.308594 L 46.9375 43.46875 C 46.9375 43.523438 46.894531 43.570312 46.835938 43.570312 L 44.285156 43.570312 C 44.027344 43.570312 43.808594 43.78125 43.808594 44.039062 L 43.808594 44.121094 C 43.800781 44.164062 43.765625 44.195312 43.714844 44.195312 L 42.542969 44.195312 C 42.492188 44.195312 42.457031 44.164062 42.445312 44.121094 Z M 42.445312 44.121094 "/>
<path style=" stroke:none;fill-rule:nonzero;fill:rgb(60%,60%,60%);fill-opacity:1;" d="M 38.265625 45.867188 L 38.265625 45.207031 C 38.265625 45.167969 38.265625 44.984375 38.28125 44.761719 C 38.519531 41.574219 41.746094 38.078125 45.199219 37.765625 C 45.667969 37.722656 46.054688 37.746094 46.25 37.765625 C 46.347656 37.765625 46.425781 37.839844 46.425781 37.9375 L 46.425781 41.820312 C 46.425781 41.921875 46.347656 42 46.25 42 L 45.199219 42 C 45.101562 42 45.023438 41.921875 45.023438 41.820312 L 45.023438 39.953125 C 45.023438 39.757812 44.863281 39.597656 44.664062 39.597656 C 44.636719 39.597656 44.605469 39.601562 44.582031 39.605469 C 44.5625 39.613281 44.542969 39.617188 44.523438 39.628906 C 42.257812 40.222656 40.480469 42.019531 39.929688 44.289062 C 39.925781 44.3125 39.921875 44.34375 39.921875 44.367188 C 39.921875 44.527344 40.050781 44.65625 40.210938 44.65625 L 44.316406 44.65625 C 44.417969 44.65625 44.496094 44.730469 44.496094 44.828125 L 44.496094 45.867188 C 44.496094 45.964844 44.417969 46.046875 44.316406 46.046875 L 38.441406 46.046875 C 38.347656 46.046875 38.265625 45.964844 38.265625 45.867188 Z M 38.265625 45.867188 "/>
<path style=" stroke:none;fill-rule:nonzero;fill:rgb(60%,60%,60%);fill-opacity:1;" d="M 50.726562 9.503906 L 47.007812 9.503906 C 46.972656 9.503906 46.941406 9.472656 46.941406 9.433594 L 46.941406 8.222656 C 46.941406 8.183594 46.972656 8.152344 47.007812 8.152344 L 49.359375 8.152344 C 49.625 8.152344 49.835938 7.941406 49.835938 7.683594 L 49.835938 2.90625 C 49.835938 2.648438 49.625 2.433594 49.359375 2.433594 L 44.515625 2.433594 C 44.257812 2.433594 44.039062 2.648438 44.039062 2.90625 L 44.039062 2.925781 C 44.039062 2.976562 44 3.015625 43.949219 3.015625 L 42.761719 3.015625 C 42.710938 3.015625 42.671875 2.976562 42.671875 2.925781 L 42.671875 1.554688 C 42.671875 1.296875 42.886719 1.085938 43.148438 1.085938 L 50.726562 1.085938 C 50.992188 1.085938 51.203125 1.296875 51.203125 1.554688 L 51.203125 9.03125 C 51.203125 9.289062 50.992188 9.503906 50.726562 9.503906 Z M 50.726562 9.503906 "/>
<path style=" stroke:none;fill-rule:nonzero;fill:rgb(60%,60%,60%);fill-opacity:1;" d="M 46.546875 5.214844 L 45.339844 5.214844 C 45.253906 5.214844 45.1875 5.148438 45.1875 5.066406 L 45.1875 4.855469 L 10.730469 4.855469 C 10.652344 4.855469 10.582031 4.789062 10.582031 4.707031 L 10.582031 3.480469 C 10.582031 3.398438 10.652344 3.332031 10.730469 3.332031 L 46.546875 3.332031 C 46.628906 3.332031 46.695312 3.398438 46.695312 3.480469 L 46.695312 5.066406 C 46.695312 5.148438 46.628906 5.214844 46.546875 5.214844 Z M 46.546875 5.214844 "/>
<path style=" stroke:none;fill-rule:nonzero;fill:rgb(60%,60%,60%);fill-opacity:1;" d="M 49.003906 7.667969 L 47.824219 7.667969 C 47.746094 7.667969 47.675781 7.601562 47.675781 7.523438 L 47.675781 7.121094 C 47.675781 7.121094 44.40625 7.121094 44.40625 7.121094 C 44.320312 7.121094 44.25 7.050781 44.25 6.96875 L 44.25 5.804688 C 44.25 5.722656 44.320312 5.652344 44.40625 5.652344 L 48.996094 5.652344 C 49.082031 5.652344 49.148438 5.722656 49.148438 5.804688 L 49.148438 7.523438 C 49.148438 7.601562 49.082031 7.667969 49.003906 7.667969 Z M 49.003906 7.667969 "/>
<path style=" stroke:none;fill-rule:nonzero;fill:rgb(60%,60%,60%);fill-opacity:1;" d="M 44.261719 9.902344 L 42.8125 9.902344 C 42.550781 9.902344 42.335938 9.6875 42.335938 9.429688 L 42.335938 5.550781 C 42.335938 5.496094 42.375 5.453125 42.433594 5.453125 L 43.605469 5.453125 C 43.660156 5.453125 43.703125 5.496094 43.703125 5.550781 L 43.703125 8.078125 C 43.703125 8.335938 43.921875 8.550781 44.179688 8.550781 L 44.261719 8.550781 C 44.304688 8.558594 44.335938 8.59375 44.335938 8.644531 L 44.335938 9.804688 C 44.335938 9.855469 44.304688 9.890625 44.261719 9.902344 Z M 44.261719 9.902344 "/>
<path style=" stroke:none;fill-rule:nonzero;fill:rgb(60%,60%,60%);fill-opacity:1;" d="M 46.027344 14.039062 L 45.359375 14.039062 C 45.320312 14.039062 45.132812 14.039062 44.90625 14.027344 C 41.691406 13.792969 38.160156 10.597656 37.847656 7.175781 C 37.800781 6.707031 37.824219 6.328125 37.847656 6.132812 C 37.847656 6.039062 37.921875 5.960938 38.019531 5.960938 L 41.941406 5.960938 C 42.042969 5.960938 42.121094 6.039062 42.121094 6.132812 L 42.121094 7.175781 C 42.121094 7.269531 42.042969 7.347656 41.941406 7.347656 L 40.054688 7.347656 C 39.855469 7.347656 39.695312 7.507812 39.695312 7.707031 C 39.695312 7.730469 39.699219 7.761719 39.707031 7.785156 C 39.710938 7.804688 39.714844 7.824219 39.726562 7.84375 C 40.328125 10.089844 42.140625 11.847656 44.433594 12.394531 C 44.457031 12.398438 44.488281 12.402344 44.511719 12.402344 C 44.671875 12.402344 44.800781 12.273438 44.800781 12.113281 L 44.800781 8.050781 C 44.800781 7.949219 44.878906 7.871094 44.976562 7.871094 L 46.027344 7.871094 C 46.125 7.871094 46.207031 7.949219 46.207031 8.050781 L 46.207031 13.867188 C 46.207031 13.960938 46.125 14.039062 46.027344 14.039062 Z M 46.027344 14.039062 "/>
<path style=" stroke:none;fill-rule:nonzero;fill:rgb(60%,60%,60%);fill-opacity:1;" d="M 1.589844 42.664062 L 5.308594 42.664062 C 5.34375 42.664062 5.371094 42.695312 5.371094 42.734375 L 5.371094 43.945312 C 5.371094 43.984375 5.34375 44.015625 5.308594 44.015625 L 2.957031 44.015625 C 2.691406 44.015625 2.480469 44.230469 2.480469 44.488281 L 2.480469 49.261719 C 2.480469 49.519531 2.691406 49.734375 2.957031 49.734375 L 7.796875 49.734375 C 8.058594 49.734375 8.273438 49.519531 8.273438 49.261719 L 8.273438 49.242188 C 8.273438 49.191406 8.316406 49.152344 8.363281 49.152344 L 9.554688 49.152344 C 9.601562 49.152344 9.644531 49.191406 9.644531 49.242188 L 9.644531 50.613281 C 9.644531 50.871094 9.425781 51.085938 9.167969 51.085938 L 1.589844 51.085938 C 1.324219 51.085938 1.113281 50.871094 1.113281 50.613281 L 1.113281 43.136719 C 1.113281 42.878906 1.324219 42.664062 1.589844 42.664062 Z M 1.589844 42.664062 "/>
<path style=" stroke:none;fill-rule:nonzero;fill:rgb(60%,60%,60%);fill-opacity:1;" d="M 5.769531 46.953125 L 6.976562 46.953125 C 7.0625 46.953125 7.128906 47.019531 7.128906 47.101562 L 7.128906 47.3125 C 7.128906 47.3125 41.585938 47.3125 41.585938 47.3125 C 41.664062 47.3125 41.734375 47.382812 41.734375 47.460938 L 41.734375 48.6875 C 41.734375 48.769531 41.664062 48.835938 41.585938 48.835938 L 5.769531 48.835938 C 5.6875 48.835938 5.617188 48.769531 5.617188 48.6875 L 5.617188 47.101562 C 5.617188 47.019531 5.6875 46.953125 5.769531 46.953125 Z M 5.769531 46.953125 "/>
<path style=" stroke:none;fill-rule:nonzero;fill:rgb(60%,60%,60%);fill-opacity:1;" d="M 3.3125 44.503906 L 4.492188 44.503906 C 4.570312 44.503906 4.640625 44.566406 4.640625 44.644531 L 4.640625 45.046875 C 4.640625 45.046875 7.910156 45.046875 7.910156 45.046875 C 7.996094 45.046875 8.0625 45.117188 8.0625 45.203125 L 8.0625 46.363281 C 8.0625 46.449219 7.996094 46.515625 7.910156 46.515625 L 3.316406 46.515625 C 3.234375 46.515625 3.167969 46.449219 3.167969 46.363281 L 3.167969 44.644531 C 3.167969 44.566406 3.234375 44.503906 3.3125 44.503906 Z M 3.3125 44.503906 "/>
<path style=" stroke:none;fill-rule:nonzero;fill:rgb(60%,60%,60%);fill-opacity:1;" d="M 8.054688 42.273438 L 9.503906 42.273438 C 9.761719 42.273438 9.980469 42.488281 9.980469 42.746094 L 9.980469 46.621094 C 9.980469 46.675781 9.9375 46.722656 9.882812 46.722656 L 8.710938 46.722656 C 8.65625 46.722656 8.609375 46.675781 8.609375 46.621094 L 8.609375 44.09375 C 8.609375 43.835938 8.394531 43.625 8.132812 43.625 L 8.054688 43.625 C 8.007812 43.613281 7.980469 43.578125 7.980469 43.527344 L 7.980469 42.367188 C 7.980469 42.316406 8.007812 42.28125 8.054688 42.273438 Z M 8.054688 42.273438 "/>
<path style=" stroke:none;fill-rule:nonzero;fill:rgb(60%,60%,60%);fill-opacity:1;" d="M 6.289062 38.132812 L 6.957031 38.132812 C 6.996094 38.132812 7.183594 38.132812 7.40625 38.148438 C 10.625 38.382812 14.152344 41.578125 14.46875 45 C 14.515625 45.464844 14.488281 45.847656 14.46875 46.039062 C 14.46875 46.136719 14.394531 46.214844 14.292969 46.214844 L 10.375 46.214844 C 10.273438 46.214844 10.195312 46.136719 10.195312 46.039062 L 10.195312 45 C 10.195312 44.902344 10.273438 44.824219 10.375 44.824219 L 12.257812 44.824219 C 12.460938 44.824219 12.621094 44.664062 12.621094 44.46875 C 12.621094 44.441406 12.617188 44.414062 12.609375 44.386719 C 12.605469 44.367188 12.601562 44.347656 12.589844 44.328125 C 11.988281 42.085938 10.175781 40.328125 7.882812 39.78125 C 7.859375 39.777344 7.828125 39.769531 7.804688 39.769531 C 7.644531 39.769531 7.511719 39.898438 7.511719 40.058594 L 7.511719 44.125 C 7.511719 44.222656 7.4375 44.304688 7.335938 44.304688 L 6.289062 44.304688 C 6.191406 44.304688 6.109375 44.222656 6.109375 44.125 L 6.109375 38.304688 C 6.109375 38.210938 6.191406 38.132812 6.289062 38.132812 Z M 6.289062 38.132812 "/>
<path style=" stroke:none;fill-rule:nonzero;fill:rgb(100%,100%,100%);fill-opacity:1;" d="M 16.308594 38.957031 L 13.277344 38.957031 C 13.257812 38.664062 13.226562 38.394531 13.226562 38.121094 C 13.226562 34.03125 13.214844 29.9375 13.226562 25.847656 C 13.246094 18.925781 18.328125 13.367188 25.484375 12.664062 C 32.164062 12.015625 38.105469 16.519531 39.605469 22.851562 C 41.554688 31.089844 35.21875 39.011719 26.664062 39.011719 C 24.632812 39.011719 22.609375 39.011719 20.5625 39.011719 C 20.519531 38.8125 20.46875 38.699219 20.46875 38.585938 C 20.46875 34.246094 20.414062 29.902344 20.488281 25.5625 C 20.535156 22.847656 22.414062 20.652344 25.039062 19.96875 C 27.589844 19.304688 30.296875 20.367188 31.742188 22.589844 C 33.179688 24.8125 32.96875 27.734375 31.230469 29.777344 C 29.535156 31.769531 26.664062 32.449219 24.226562 31.441406 C 23.917969 31.3125 23.613281 31.179688 23.199219 31 C 23.199219 32.359375 23.140625 33.625 23.246094 34.875 C 23.269531 35.160156 23.820312 35.535156 24.191406 35.636719 C 29.289062 37 34.726562 34.050781 36.328125 28.984375 C 37.625 24.867188 36.664062 21.203125 33.449219 18.308594 C 30.257812 15.441406 26.480469 14.835938 22.527344 16.523438 C 18.503906 18.246094 16.433594 21.476562 16.335938 25.8125 C 16.238281 29.808594 16.3125 33.808594 16.3125 37.808594 C 16.3125 38.171875 16.3125 38.535156 16.3125 38.953125 Z M 16.308594 38.957031 "/>
</g>
</svg>
