<?xml version="1.0" encoding="UTF-8"?>
<svg id="_Слой_2" data-name="Слой_2" xmlns="http://www.w3.org/2000/svg" viewBox="0 0 681.14 21.76">
  <defs>
    <style>
      .cls-1 {
        fill: #e6e6e6;
      }
    </style>
  </defs>
  <g id="_Слой_11" data-name="Слой_11">
    <g>
      <polygon class="cls-1" points="10.51 10.81 7.24 7.54 3.23 11.55 7.29 15.61 8.18 14.73 9.75 16.29 7.24 18.8 0 11.56 7.14 4.42 12 9.27 10.51 10.81"/>
      <polygon class="cls-1" points="8.41 10.57 6.86 12.12 16.49 21.76 18.58 19.68 17.08 18.18 16.6 18.65 8.41 10.57"/>
      <polygon class="cls-1" points="10.61 11.81 12.22 13.42 18.51 7.13 17.01 5.63 10.61 11.81"/>
      <polygon class="cls-1" points="12.23 7.82 10.64 6.23 16.2 .66 20.88 5.34 19.35 6.87 16.29 3.81 12.23 7.82"/>
      <polygon class="cls-1" points="14.95 11.98 13.47 13.46 22.75 21.59 658.34 21.59 661.19 18.87 659.85 17.36 657.65 19.56 23.8 19.56 14.95 11.98"/>
      <polygon class="cls-1" points="21.21 4.42 19.65 2.86 22.57 .42 658.44 .42 667.75 8.24 666.15 9.84 657.57 2.72 23.2 2.72 21.21 4.42"/>
      <polygon class="cls-1" points="664.8 3.17 664.13 3.84 662.4 2.1 664.5 0 674.45 9.96 672.92 11.49 664.8 3.17"/>
      <polygon class="cls-1" points="669.07 8.54 662.82 14.79 664.23 16.2 670.44 9.99 669.07 8.54"/>
      <polygon class="cls-1" points="661.8 14.92 660.32 16.4 665.08 21.15 670.66 15.57 669.06 13.98 664.95 18.08 661.8 14.92"/>
      <polygon class="cls-1" points="670.75 11.1 669.14 12.71 673.95 17.52 681.14 10.34 673.91 3.11 671.42 5.6 672.94 7.13 673.98 6.09 678.16 10.26 674.04 14.38 670.75 11.1"/>
    </g>
  </g>
</svg>