<?xml version="1.0" encoding="UTF-8"?>
<svg id="_Слой_2" data-name="Слой_2" xmlns="http://www.w3.org/2000/svg" viewBox="0 0 1024 768">
  <defs>
    <style>
      .cls-1 {
        fill: #1a1a1a;
      }

      .cls-2 {
        fill: #ccc;
      }
    </style>
  </defs>
  <g id="_Слой_1-2" data-name="Слой_1">
    <rect class="cls-1" width="1024" height="768"/>
  </g>
  <g id="_Слой_5" data-name="Слой_5">
    <g>
      <polygon class="cls-2" points="25.92 54.55 15.34 54.55 15.34 15.38 54.67 15.38 54.67 43.38 48.5 43.38 48.5 22.72 22.17 22.72 22.17 47.88 25.84 47.88 25.92 54.55"/>
      <polygon class="cls-2" points="29.09 57.22 29.09 29.3 44.84 29.3 44.84 35.63 36.09 35.63 36.09 57.22 29.09 57.22"/>
      <polygon class="cls-2" points="13.42 62.38 13.42 91.88 20.92 91.88 20.92 68.63 58.42 68.63 58.42 59.88 13.42 62.38"/>
      <polygon class="cls-2" points="40 54.55 40 47.72 60.67 47.72 60.67 15.38 91.17 15.38 91.17 22.47 67.25 22.47 67.25 54.55 40 54.55"/>
      <polygon class="cls-2" points="72.84 37.88 72.84 30.05 92.92 30.05 92.92 38.63 72.84 37.88"/>
      <polygon class="cls-2" points="27.67 76.97 27.67 94.97 35.92 94.97 35.92 75.22 27.67 76.97"/>
    </g>
    <g>
      <polygon class="cls-2" points="54.04 739.19 54.04 749.77 14.88 749.77 14.88 710.44 42.88 710.44 42.88 716.6 22.21 716.6 22.21 742.94 47.38 742.94 47.38 739.27 54.04 739.19"/>
      <polygon class="cls-2" points="56.71 736.02 28.79 736.02 28.79 720.27 35.13 720.27 35.13 729.02 56.71 729.02 56.71 736.02"/>
      <polygon class="cls-2" points="61.88 751.69 91.38 751.69 91.38 744.19 68.13 744.19 68.13 706.69 59.38 706.69 61.88 751.69"/>
      <polygon class="cls-2" points="54.04 725.1 47.21 725.1 47.21 704.44 14.88 704.44 14.88 673.94 21.96 673.94 21.96 697.85 54.04 697.85 54.04 725.1"/>
      <polygon class="cls-2" points="37.38 692.27 29.54 692.27 29.54 672.19 38.13 672.19 37.38 692.27"/>
      <polygon class="cls-2" points="76.46 737.44 94.46 737.44 94.46 729.19 74.71 729.19 76.46 737.44"/>
    </g>
    <g>
      <polygon class="cls-2" points="996.66 712.98 1007.24 712.98 1007.24 752.15 967.91 752.15 967.91 724.15 974.07 724.15 974.07 744.82 1000.41 744.82 1000.41 719.65 996.74 719.65 996.66 712.98"/>
      <polygon class="cls-2" points="993.49 710.32 993.49 738.23 977.74 738.23 977.74 731.9 986.49 731.9 986.49 710.32 993.49 710.32"/>
      <polygon class="cls-2" points="1009.16 705.15 1009.16 675.65 1001.66 675.65 1001.66 698.9 964.16 698.9 964.16 707.65 1009.16 705.15"/>
      <polygon class="cls-2" points="982.57 712.98 982.57 719.82 961.91 719.82 961.91 752.15 931.41 752.15 931.41 745.07 955.32 745.07 955.32 712.98 982.57 712.98"/>
      <polygon class="cls-2" points="949.74 729.65 949.74 737.48 929.66 737.48 929.66 728.9 949.74 729.65"/>
      <polygon class="cls-2" points="994.91 690.57 994.91 672.57 986.66 672.57 986.66 692.32 994.91 690.57"/>
    </g>
    <g>
      <polygon class="cls-2" points="968.53 28.35 968.53 17.77 1007.7 17.77 1007.7 57.1 979.7 57.1 979.7 50.93 1000.36 50.93 1000.36 24.6 975.2 24.6 975.2 28.27 968.53 28.35"/>
      <polygon class="cls-2" points="965.86 31.52 993.78 31.52 993.78 47.27 987.45 47.27 987.45 38.52 965.86 38.52 965.86 31.52"/>
      <polygon class="cls-2" points="960.7 15.85 931.2 15.85 931.2 23.35 954.45 23.35 954.45 60.85 963.2 60.85 960.7 15.85"/>
      <polygon class="cls-2" points="968.53 42.43 975.36 42.43 975.36 63.1 1007.7 63.1 1007.7 93.6 1000.61 93.6 1000.61 69.68 968.53 69.68 968.53 42.43"/>
      <polygon class="cls-2" points="985.2 75.27 993.03 75.27 993.03 95.35 984.45 95.35 985.2 75.27"/>
      <polygon class="cls-2" points="946.11 30.1 928.11 30.1 928.11 38.35 947.86 38.35 946.11 30.1"/>
    </g>
  </g>
</svg>