<?xml version="1.0" encoding="UTF-8"?>
<svg id="_Слой_2" data-name="Слой_2" xmlns="http://www.w3.org/2000/svg" viewBox="0 0 939.82 76.41">
  <defs>
    <style>
      .cls-1 {
        fill: #1a1a1a;
      }

      .cls-2 {
        fill: #ccc;
      }

      .cls-3 {
        fill: #b3b3b3;
      }
    </style>
  </defs>
  <g id="_Слой_4" data-name="Слой_4">
    <g>
      <path class="cls-2" d="M129.42,29.3c-1.49-1.93-2.97-3.24-4.08-4.08-1.84-1.4-2.46-1.39-2.72-1.36-1.87.21-2.89,3.25-3.4,4.76-1.01,3-.75,5.54-.68,6.12.14,1.16.73,4.92,3.4,7.48,1.23,1.18,2.71,1.92,2.8,1.97.75.37,1.43.6,1.96.75-.62-.41-2.07-1.47-2.72-3.4-.41-1.22-.61-3.12,0-3.4.46-.21,1.5.41,4.08,4.08,1.33.41,1.83.25,2.04,0,.32-.38-.06-.99,0-2.04.05-.87.39-1.57.68-2.04,1.12-.19,2.76-.46,4.76-.68,10.75-1.21,26.91-.81,27.87,3.4.6,2.63-4.94,5.83-5.44,6.12-9.68,5.58-21.14-1.64-21.76-2.04-.86,1.03-1.21,1.99-1.36,2.72-.74,3.64,2.25,8.01,7.48,10.88,1.25-.96,3.08-2.22,5.44-3.4,2.07-1.03,9.81-4.77,19.04-3.4,12.93,1.92,19.96,12.54,21.08,14.28.35-1.52.76-4.25,0-7.48-1.15-4.89-4.24-7.82-5.44-8.84,2.41.67,5.22,1.72,8.16,3.4,8.05,4.61,12.32,11.29,14.28,14.96-.4-2.72-1.29-6.61-3.4-10.88-1.97-3.98-4.31-6.9-6.12-8.84,3.81,1.8,9.16,4.92,14.28,10.2,3.02,3.11,5.21,6.21,6.8,8.84-.41-2.73-1.2-6.01-2.72-9.52-3.98-9.18-10.65-14.52-14.28-17,3.34,1.25,7.06,2.99,10.88,5.44,12.34,7.92,18.73,18.81,21.76,25.15-.66-4.7-2.31-11.75-6.8-19.04-9.24-14.99-23.89-20.28-28.55-21.76,1.41-.11,3.01-.14,4.76,0,3.62.28,6.62,1.17,8.84,2.04-1.13-2.27-2.27-4.53-3.4-6.8-1.96.49-4.79.94-8.16.68-5.03-.39-8.8-2.2-10.88-3.4,2.28-1.49,4.99-2.93,8.16-4.08,13.16-4.77,25.38-1.21,30.59.68,1.13-.68,2.27-1.36,3.4-2.04-3.73-1.62-9.58-3.62-17-4.08-8.68-.53-15.62,1.3-19.72,2.72,4.11-2.06,9.37-4,15.64-4.76,22.63-2.73,39.82,12.26,43.51,15.64.91-.68,1.81-1.36,2.72-2.04-3.61-3.59-10.81-9.79-21.76-13.6-11.48-4-21.42-3.39-26.51-2.72,4.47-1.34,9.98-2.48,16.32-2.72,17.78-.66,31.45,6.21,38.07,10.2v-4.08c-2.82-1.55-6.98-3.63-12.24-5.44-6.1-2.1-28.97-9.98-51.67.68-4.41,2.07-11.02,5.87-17.68,12.92-1.76-.78-4.31-1.67-7.48-2.04-4.06-.47-7.41.13-9.52.68-.66,1.26-1.54,2.66-2.72,4.08-3.26,3.9-7.13,5.85-9.52,6.8-3.37.63-7.79,1.09-12.92.68-3.09-.25-5.83-.77-8.16-1.36Z"/>
      <path class="cls-2" d="M130.76,46.52c.48.29-.2,4.06-2.72,6.8-6.21,6.74-20.8,4.29-26.21,2.19-.55-.21-1.58-.65-3.1-.91-3.08-.53-5.42.14-9.37,1.13-4.22,1.06-6.33,1.58-7.33,1.74-3.35.51-7.75,1.13-12.16-.91-1.53-.71-3.65-1.73-4.76-4.08-.23-.49-1.43-3.04-.15-5.51,1.05-2.03,3.36-3.26,5.89-3.17-.39.12-2.1.69-2.87,2.34-1.01,2.16.41,4.37.6,4.66,1.46,2.21,4.2,2.55,8.78,3.12,4.81.6,7.87,0,9.66-.5,1.02-.28,4.14-1.16,4.1-2.16-.04-1.01-3.24-1.67-4.48-1.93-3.99-.83-6.82-.27-6.89-.7-.07-.37,1.99-1.13,3.93-1.59,3.68-.87,6.7-.62,7.63-.53,3.43.34,5.83,1.29,9.74,2.87,5.26,2.12,5.3,2.85,8.54,3.63,4.18,1,7.51.6,8.54.45,1.67-.24,4.58-.68,7.55-2.57,3.31-2.09,4.63-4.65,5.06-4.38Z"/>
      <path class="cls-2" d="M0,54.79c18.66-8.84,29.1-8.04,35.26-5.38,3.92,1.69,7.95,2.61,16.01,4.44,1.95.44,6.34,1.38,10.42-.76.49-.26.88-.5,1.13-.68,1.18,1.31,2.37,2.62,3.55,3.93-1.38.06-2.99.23-4.76.6-2.86.61-4.58,1.46-6.12,2.04-4.04,1.51-7.64,1.47-10.05,1.44-2.65-.03-7.69-.48-13.6-3.61,2.19,1.01,7.55,3.09,13.9,1.61,2.14-.5,3.91-1.3,5.29-2.08-6.27-1.64-14.14-3.13-23.27-3.58-11.07-.55-20.56.6-27.78,2.03Z"/>
      <polygon class="cls-2" points="282.07 29.01 287 24.54 297.99 24.54 297.99 55.75 287.22 55.75 274.02 44.93 277.03 41.99 288.24 51.33 293.4 51.33 293.4 28.16 288.98 28.16 284.9 32.01 282.07 29.01"/>
      <polygon class="cls-2" points="280.93 42.72 284.67 46.01 290.91 40.15 266.37 15.36 266.37 19.78 284.56 38.98 280.93 42.72"/>
      <polygon class="cls-2" points="278.64 50.03 271 58.3 260.05 50.03 262.58 47.73 270.09 53.01 275 47.08 278.64 50.03"/>
      <polygon class="cls-2" points="264.09 47.42 267.15 49.8 279.88 36.47 277.08 33.52 264.09 47.42"/>
      <path class="cls-2" d="M259.75,55.32l1.93-2.63,2.68,2.36-4.31,7.37c-3.37-6.49-7.64-13.72-13.05-21.26-4.67-6.52-9.37-12.14-13.79-16.92,1-.75,1.99-1.5,2.99-2.25,4.08,4.9,8.29,10.32,12.5,16.3,4.16,5.9,7.83,11.61,11.05,17.03Z"/>
      <path class="cls-2" d="M261.79,17.96l3.54,2.27c.23-2.01.39-4.2.45-6.54.05-2.08.01-4.04-.08-5.86-1.18.03-2.64.16-4.28.54-1.62.37-2.98.88-4.05,1.36,1.24.62,2.47,1.25,3.71,1.87.16-.13.4-.31.74-.45.34-.14.64-.18.85-.2.04.99.01,2.16-.14,3.46-.17,1.37-.44,2.57-.74,3.57Z"/>
      <path class="cls-2" d="M220.58,33.27c.86,1.36,1.72,2.72,2.58,4.08-2.04-.38-5.14-1.27-8.19-3.54-1.73-1.29-4.56-3.4-5.81-7.31-.98-3.05-.52-5.75-.2-7.08,1.19-.2,2.65-.31,4.31-.17,4.21.37,7.28,2.21,8.87,3.34-1.38.62-2.76,1.25-4.14,1.87-.42-.47-1.27-1.3-2.61-1.84-1.61-.65-3.04-.52-3.68-.42-.05.71-.22,4.59,2.69,7.79,2.35,2.58,5.28,3.15,6.18,3.29Z"/>
      <path class="cls-2" d="M214.33,26.89c.71,1.03,1.41,2.06,2.12,3.1,2.75-.5,6.32-1.43,10.24-3.25,4.38-2.03,7.68-4.47,9.93-6.42-1.13-.81-2.27-1.61-3.4-2.42-1.91,1.68-4.6,3.71-8.12,5.48-4.17,2.09-8,3.05-10.76,3.51Z"/>
      <path class="cls-2" d="M221.31,29.72c.57,2.46,1.6,5.69,3.51,9.18,2.38,4.33,5.2,7.37,7.29,9.29v-5.03c-1.47-1.66-3.27-4.05-4.8-7.21-1.24-2.56-1.95-4.93-2.38-6.83-1.21.2-2.42.4-3.63.59Z"/>
      <path class="cls-2" d="M259.08,28.78c-.87.71-1.74,1.41-2.61,2.12,4.05,3.25,8.11,6.5,12.16,9.74.91-.91,1.81-1.81,2.72-2.72-4.09-3.05-8.18-6.09-12.28-9.14Z"/>
      <path class="cls-2" d="M259.12,23.83c-1.2,1.36-2.96,3.07-5.4,4.61-3.36,2.12-6.56,3-8.65,3.4.65.74,1.31,1.49,1.96,2.23,2.07-.55,4.9-1.53,7.93-3.36,2.97-1.79,5.12-3.78,6.57-5.33-.81-.52-1.61-1.03-2.42-1.55Z"/>
      <path class="cls-2" d="M255.38,46.64c.65,1.07,1.31,2.14,1.96,3.21,1.48-.86,3.21-2.01,4.99-3.55,2.18-1.89,3.79-3.81,4.95-5.4-1.08-.74-2.17-1.49-3.25-2.23-.84,1.25-2.01,2.74-3.59,4.23-1.82,1.73-3.62,2.93-5.06,3.74Z"/>
      <path class="cls-2" d="M258.18,42.64l-2.79,2.23c-.78-.68-8.77-7.89-7.63-19.07,1.02-9.98,8.52-15.32,9.61-16.07,1.24.62,2.47,1.25,3.71,1.87-.79.41-8.56,4.63-9.89,13.79-1.49,10.32,6.64,16.99,6.99,17.26Z"/>
      <path class="cls-2" d="M238.5,14.75c1.87-.46,4.74-.97,8.23-.79,3.19.16,10.54.54,16.05,6.19,5.28,5.42,5.64,12.36,5.67,14.35-1.37-.99-2.74-1.99-4.12-2.98-.11-1.97-.6-4.64-2.27-7.18-3.44-5.25-10.47-7.8-18.02-6.76-1.85-.94-3.7-1.89-5.55-2.83Z"/>
      <path class="cls-2" d="M227.58,34.39l1.4,3.29c1.25,0,2.62.05,4.08.19,1.27.12,2.46.29,3.55.49-1.01,2.19-2.19,5.53-2.3,9.71-.26,9.33,5,15.89,6.61,17.75,1.19-.75,2.95-2.08,4.49-4.23,2.22-3.09,2.78-6.2,2.95-7.74h-3.59c-.05.63-.22,1.84-.98,3.13-.76,1.29-1.73,2.03-2.27,2.38-.83-1.01-3.63-4.68-3.59-10.08.03-4.63,2.12-7.88,2.95-9.03-.29-1.52-.58-3.05-.87-4.57-1.48-.37-3.14-.71-4.95-.94-2.79-.37-5.32-.43-7.48-.34Z"/>
      <path class="cls-2" d="M250.96,48.56c.79,1.17,1.59,2.34,2.38,3.51-2.12.46-5.22.88-8.91.53-3.29-.32-5.96-1.14-7.86-1.89.19-1.6.38-3.2.57-4.8,1.51.81,3.76,1.82,6.65,2.38,2.95.57,5.46.47,7.18.26Z"/>
      <path class="cls-2" d="M248.85,49.54c-.08-1.53-.45-4.48-2.29-7.59-2.17-3.69-5.19-5.54-6.55-6.27.29,1.52.58,3.05.87,4.57.7.38,2.21,1.33,3.26,3.19,1.47,2.59,1.03,5.14.89,5.84l3.81.26Z"/>
      <path class="cls-1" d="M190.29,37.5c-.05,1.12-.21,5.23-3.58,8.28-2.71,2.46-6.45,3.28-9.69,2.56-1.09-.24-4.45-.99-6.12-4.08-1.31-2.42-.82-4.82-.68-5.44.14-.65.94-3.85,4.08-5.44.4-.2,4.11-2.01,6.8,0,2.73,2.04,3.13,7.02.61,9.1-1.67,1.37-4.76,1.58-6.36-.09-1.24-1.29-1.07-3.17-1.04-3.58.07-.85.45-2.56,1.36-2.72.35-.06.81.1,1,.42.34.59-.5,1.2-.5,2.37,0,.07.01,1.25.86,1.97.91.78,2.43.71,3.4,0,1.35-.99,1.11-2.88,1.05-3.41-.04-.31-.22-1.84-1.48-2.82-1.72-1.36-4.34-.8-5.87.35-1.65,1.24-2,3.13-2.13,3.84-.12.65-.36,1.96.27,3.4.71,1.64,2.1,2.39,2.72,2.72,1.73.93,3.37.85,4.19.8.75-.05,3.2-.23,5.33-2.16,2.24-2.03,2.62-4.62,2.72-5.44.11-.86.33-3.51-1.36-6.12-.33-.51-1.64-2.42-4.08-3.4-1.55-.63-3.03-.66-4.08-.68-1.9-.04-2.77.29-3.47.2-1.18,3.07-5.72,3.77-6.38,3.88-1.31.2-2.48.1-3.74,0-2.15-.18-3.22-.27-3.4-.68-.67-1.56,7.51-7.98,11.55-7.89,4.03.02,7.07,1.03,8.85,1.77,2.64,1.1,5.54,2.31,7.48,5.44,1.84,2.96,1.75,5.93,1.72,6.84Z"/>
      <path class="cls-3" d="M168.85,28.62c-.03.8-1.61,1.24-2.04,1.36-.43.12-1.72.48-2.04,0-.4-.59.58-2.6,2.04-2.72.97-.08,2.06.68,2.04,1.36Z"/>
      <path class="cls-1" d="M123.96,32.84c-.19-1.53-.07-1.9-.34-2.04-.32-.16-.84.16-1.11.45-.69.74-.67,2.21.06,2.7.42.28,1.11.26,1.38-.08.15-.19.1-.4.02-1.04Z"/>
    </g>
    <g>
      <path class="cls-2" d="M810.4,29.3c1.49-1.93,2.97-3.24,4.08-4.08,1.84-1.4,2.46-1.39,2.72-1.36,1.87.21,2.89,3.25,3.4,4.76,1.01,3,.75,5.54.68,6.12-.14,1.16-.73,4.92-3.4,7.48-1.23,1.18-2.71,1.92-2.8,1.97-.75.37-1.43.6-1.96.75.62-.41,2.07-1.47,2.72-3.4.41-1.22.61-3.12,0-3.4-.46-.21-1.5.41-4.08,4.08-1.33.41-1.83.25-2.04,0-.32-.38.06-.99,0-2.04-.05-.87-.39-1.57-.68-2.04-1.12-.19-2.76-.46-4.76-.68-10.75-1.21-26.91-.81-27.87,3.4-.6,2.63,4.94,5.83,5.44,6.12,9.68,5.58,21.14-1.64,21.76-2.04.86,1.03,1.21,1.99,1.36,2.72.74,3.64-2.25,8.01-7.48,10.88-1.25-.96-3.08-2.22-5.44-3.4-2.07-1.03-9.81-4.77-19.04-3.4-12.93,1.92-19.96,12.54-21.08,14.28-.35-1.52-.76-4.25,0-7.48,1.15-4.89,4.24-7.82,5.44-8.84-2.41.67-5.22,1.72-8.16,3.4-8.05,4.61-12.32,11.29-14.28,14.96.4-2.72,1.29-6.61,3.4-10.88,1.97-3.98,4.31-6.9,6.12-8.84-3.81,1.8-9.16,4.92-14.28,10.2-3.02,3.11-5.21,6.21-6.8,8.84.41-2.73,1.2-6.01,2.72-9.52,3.98-9.18,10.65-14.52,14.28-17-3.34,1.25-7.06,2.99-10.88,5.44-12.34,7.92-18.73,18.81-21.76,25.15.66-4.7,2.31-11.75,6.8-19.04,9.24-14.99,23.89-20.28,28.55-21.76-1.41-.11-3.01-.14-4.76,0-3.62.28-6.62,1.17-8.84,2.04,1.13-2.27,2.27-4.53,3.4-6.8,1.96.49,4.79.94,8.16.68,5.03-.39,8.8-2.2,10.88-3.4-2.28-1.49-4.99-2.93-8.16-4.08-13.16-4.77-25.38-1.21-30.59.68-1.13-.68-2.27-1.36-3.4-2.04,3.73-1.62,9.58-3.62,17-4.08,8.68-.53,15.62,1.3,19.72,2.72-4.11-2.06-9.37-4-15.64-4.76-22.63-2.73-39.82,12.26-43.51,15.64-.91-.68-1.81-1.36-2.72-2.04,3.61-3.59,10.81-9.79,21.76-13.6,11.48-4,21.42-3.39,26.51-2.72-4.47-1.34-9.98-2.48-16.32-2.72-17.78-.66-31.45,6.21-38.07,10.2,0-1.36,0-2.72,0-4.08,2.82-1.55,6.98-3.63,12.24-5.44,6.1-2.1,28.97-9.98,51.67.68,4.41,2.07,11.02,5.87,17.68,12.92,1.76-.78,4.31-1.67,7.48-2.04,4.06-.47,7.41.13,9.52.68.66,1.26,1.54,2.66,2.72,4.08,3.26,3.9,7.13,5.85,9.52,6.8,3.37.63,7.79,1.09,12.92.68,3.09-.25,5.83-.77,8.16-1.36Z"/>
      <path class="cls-2" d="M809.06,46.52c-.48.29.2,4.06,2.72,6.8,6.21,6.74,20.8,4.29,26.21,2.19.55-.21,1.58-.65,3.1-.91,3.08-.53,5.42.14,9.37,1.13,4.22,1.06,6.33,1.58,7.33,1.74,3.35.51,7.75,1.13,12.16-.91,1.53-.71,3.65-1.73,4.76-4.08.23-.49,1.43-3.04.15-5.51-1.05-2.03-3.36-3.26-5.89-3.17.39.12,2.1.69,2.87,2.34,1.01,2.16-.41,4.37-.6,4.66-1.46,2.21-4.2,2.55-8.78,3.12-4.81.6-7.87,0-9.66-.5-1.02-.28-4.14-1.16-4.1-2.16.04-1.01,3.24-1.67,4.48-1.93,3.99-.83,6.82-.27,6.89-.7.07-.37-1.99-1.13-3.93-1.59-3.68-.87-6.7-.62-7.63-.53-3.43.34-5.83,1.29-9.74,2.87-5.26,2.12-5.3,2.85-8.54,3.63-4.18,1-7.51.6-8.54.45-1.67-.24-4.58-.68-7.55-2.57-3.31-2.09-4.63-4.65-5.06-4.38Z"/>
      <path class="cls-2" d="M939.82,54.79c-18.66-8.84-29.1-8.04-35.26-5.38-3.92,1.69-7.95,2.61-16.01,4.44-1.95.44-6.34,1.38-10.42-.76-.49-.26-.88-.5-1.13-.68-1.18,1.31-2.37,2.62-3.55,3.93,1.38.06,2.99.23,4.76.6,2.86.61,4.58,1.46,6.12,2.04,4.04,1.51,7.64,1.47,10.05,1.44,2.65-.03,7.69-.48,13.6-3.61-2.19,1.01-7.55,3.09-13.9,1.61-2.14-.5-3.91-1.3-5.29-2.08,6.27-1.64,14.14-3.13,23.27-3.58,11.07-.55,20.56.6,27.78,2.03Z"/>
      <polygon class="cls-2" points="657.75 29.01 652.82 24.54 641.83 24.54 641.83 55.75 652.6 55.75 665.8 44.93 662.79 41.99 651.58 51.33 646.42 51.33 646.42 28.16 650.84 28.16 654.92 32.01 657.75 29.01"/>
      <polygon class="cls-2" points="658.88 42.72 655.15 46.01 648.91 40.15 673.44 15.36 673.44 19.78 655.26 38.98 658.88 42.72"/>
      <polygon class="cls-2" points="661.18 50.03 668.82 58.3 679.77 50.03 677.24 47.73 669.72 53.01 664.81 47.08 661.18 50.03"/>
      <polygon class="cls-2" points="675.73 47.42 672.67 49.8 659.94 36.47 662.74 33.52 675.73 47.42"/>
      <path class="cls-2" d="M680.07,55.32l-1.93-2.63-2.68,2.36,4.31,7.37c3.37-6.49,7.64-13.72,13.05-21.26,4.67-6.52,9.37-12.14,13.79-16.92-1-.75-1.99-1.5-2.99-2.25-4.08,4.9-8.29,10.32-12.5,16.3-4.16,5.9-7.83,11.61-11.05,17.03Z"/>
      <path class="cls-2" d="M678.03,17.96l-3.54,2.27c-.23-2.01-.39-4.2-.45-6.54-.05-2.08-.01-4.04.08-5.86,1.18.03,2.64.16,4.28.54,1.62.37,2.98.88,4.05,1.36-1.24.62-2.47,1.25-3.71,1.87-.16-.13-.4-.31-.74-.45-.34-.14-.64-.18-.85-.2-.04.99-.01,2.16.14,3.46.17,1.37.44,2.57.74,3.57Z"/>
      <path class="cls-2" d="M719.24,33.27c-.86,1.36-1.72,2.72-2.58,4.08,2.04-.38,5.14-1.27,8.19-3.54,1.73-1.29,4.56-3.4,5.81-7.31.98-3.05.52-5.75.2-7.08-1.19-.2-2.65-.31-4.31-.17-4.21.37-7.28,2.21-8.87,3.34,1.38.62,2.76,1.25,4.14,1.87.42-.47,1.27-1.3,2.61-1.84,1.61-.65,3.04-.52,3.68-.42.05.71.22,4.59-2.69,7.79-2.35,2.58-5.28,3.15-6.18,3.29Z"/>
      <path class="cls-2" d="M725.49,26.89c-.71,1.03-1.41,2.06-2.12,3.1-2.75-.5-6.32-1.43-10.24-3.25-4.38-2.03-7.68-4.47-9.93-6.42,1.13-.81,2.27-1.61,3.4-2.42,1.91,1.68,4.6,3.71,8.12,5.48,4.17,2.09,8,3.05,10.76,3.51Z"/>
      <path class="cls-2" d="M718.5,29.72c-.57,2.46-1.6,5.69-3.51,9.18-2.38,4.33-5.2,7.37-7.29,9.29,0-1.68,0-3.35,0-5.03,1.47-1.66,3.27-4.05,4.8-7.21,1.24-2.56,1.95-4.93,2.38-6.83,1.21.2,2.42.4,3.63.59Z"/>
      <path class="cls-2" d="M680.73,28.78c.87.71,1.74,1.41,2.61,2.12-4.05,3.25-8.11,6.5-12.16,9.74-.91-.91-1.81-1.81-2.72-2.72,4.09-3.05,8.18-6.09,12.28-9.14Z"/>
      <path class="cls-2" d="M680.7,23.83c1.2,1.36,2.96,3.07,5.4,4.61,3.36,2.12,6.56,3,8.65,3.4-.65.74-1.31,1.49-1.96,2.23-2.07-.55-4.9-1.53-7.93-3.36-2.97-1.79-5.12-3.78-6.57-5.33.81-.52,1.61-1.03,2.42-1.55Z"/>
      <path class="cls-2" d="M684.44,46.64c-.65,1.07-1.31,2.14-1.96,3.21-1.48-.86-3.21-2.01-4.99-3.55-2.18-1.89-3.79-3.81-4.95-5.4,1.08-.74,2.17-1.49,3.25-2.23.84,1.25,2.01,2.74,3.59,4.23,1.82,1.73,3.62,2.93,5.06,3.74Z"/>
      <path class="cls-2" d="M681.64,42.64l2.79,2.23c.78-.68,8.77-7.89,7.63-19.07-1.02-9.98-8.52-15.32-9.61-16.07-1.24.62-2.47,1.25-3.71,1.87.79.41,8.56,4.63,9.89,13.79,1.49,10.32-6.64,16.99-6.99,17.26Z"/>
      <path class="cls-2" d="M701.32,14.75c-1.87-.46-4.74-.97-8.23-.79-3.19.16-10.54.54-16.05,6.19-5.28,5.42-5.64,12.36-5.67,14.35,1.37-.99,2.74-1.99,4.12-2.98.11-1.97.6-4.64,2.27-7.18,3.44-5.25,10.47-7.8,18.02-6.76,1.85-.94,3.7-1.89,5.55-2.83Z"/>
      <path class="cls-2" d="M712.23,34.39l-1.4,3.29c-1.25,0-2.62.05-4.08.19-1.27.12-2.46.29-3.55.49,1.01,2.19,2.19,5.53,2.3,9.71.26,9.33-5,15.89-6.61,17.75-1.19-.75-2.95-2.08-4.49-4.23-2.22-3.09-2.78-6.2-2.95-7.74h3.59c.05.63.22,1.84.98,3.13.76,1.29,1.73,2.03,2.27,2.38.83-1.01,3.63-4.68,3.59-10.08-.03-4.63-2.12-7.88-2.95-9.03.29-1.52.58-3.05.87-4.57,1.48-.37,3.14-.71,4.95-.94,2.79-.37,5.32-.43,7.48-.34Z"/>
      <path class="cls-2" d="M688.86,48.56c-.79,1.17-1.59,2.34-2.38,3.51,2.12.46,5.22.88,8.91.53,3.29-.32,5.96-1.14,7.86-1.89-.19-1.6-.38-3.2-.57-4.8-1.51.81-3.76,1.82-6.65,2.38-2.95.57-5.46.47-7.18.26Z"/>
      <path class="cls-2" d="M690.97,49.54c.08-1.53.45-4.48,2.29-7.59,2.17-3.69,5.19-5.54,6.55-6.27-.29,1.52-.58,3.05-.87,4.57-.7.38-2.21,1.33-3.26,3.19-1.47,2.59-1.03,5.14-.89,5.84l-3.81.26Z"/>
      <path class="cls-1" d="M749.53,37.5c.05,1.12.21,5.23,3.58,8.28,2.71,2.46,6.45,3.28,9.69,2.56,1.09-.24,4.45-.99,6.12-4.08,1.31-2.42.82-4.82.68-5.44-.14-.65-.94-3.85-4.08-5.44-.4-.2-4.11-2.01-6.8,0-2.73,2.04-3.13,7.02-.61,9.1,1.67,1.37,4.76,1.58,6.36-.09,1.24-1.29,1.07-3.17,1.04-3.58-.07-.85-.45-2.56-1.36-2.72-.35-.06-.81.1-1,.42-.34.59.5,1.2.5,2.37,0,.07-.01,1.25-.86,1.97-.91.78-2.43.71-3.4,0-1.35-.99-1.11-2.88-1.05-3.41.04-.31.22-1.84,1.48-2.82,1.72-1.36,4.34-.8,5.87.35,1.65,1.24,2,3.13,2.13,3.84.12.65.36,1.96-.27,3.4-.71,1.64-2.1,2.39-2.72,2.72-1.73.93-3.37.85-4.19.8-.75-.05-3.2-.23-5.33-2.16-2.24-2.03-2.62-4.62-2.72-5.44-.11-.86-.33-3.51,1.36-6.12.33-.51,1.64-2.42,4.08-3.4,1.55-.63,3.03-.66,4.08-.68,1.9-.04,2.77.29,3.47.2,1.18,3.07,5.72,3.77,6.38,3.88,1.31.2,2.48.1,3.74,0,2.15-.18,3.22-.27,3.4-.68.67-1.56-7.51-7.98-11.55-7.89-4.03.02-7.07,1.03-8.85,1.77-2.64,1.1-5.54,2.31-7.48,5.44-1.84,2.96-1.75,5.93-1.72,6.84Z"/>
      <path class="cls-3" d="M770.97,28.62c.03.8,1.61,1.24,2.04,1.36.43.12,1.72.48,2.04,0,.4-.59-.58-2.6-2.04-2.72-.97-.08-2.06.68-2.04,1.36Z"/>
      <path class="cls-1" d="M815.86,32.84c.19-1.53.07-1.9.34-2.04.32-.16.84.16,1.11.45.69.74.67,2.21-.06,2.7-.42.28-1.11.26-1.38-.08-.15-.19-.1-.4-.02-1.04Z"/>
    </g>
  </g>
  <g id="Text">
    <g>
      <path class="cls-2" d="M357.16,1c12.83,0,23.31,6.15,31.43,18.46l-24.68,13.87c12.02,4.57,22.22,16.38,30.59,35.44-2.36,4.29-5.87,6.43-10.55,6.43-9.49-21.13-20.78-32.68-33.86-34.65-1.05-.84-1.58-2.04-1.58-3.59l25.68-14.4c-4.36-8.86-11.2-13.29-20.51-13.29-4.89,0-10.71,2.44-17.46,7.33v38.39c0,6.86.49,13.38,1.48,19.56l-13.24-.42c.35-6.12.53-12.23.53-18.35V19.09c0-4.46-2.16-7.38-6.49-8.75,1.55-4.78,4.1-7.94,7.65-9.49,4.96,0,8.31,3.76,10.07,11.29,6.12-7.42,13.1-11.13,20.94-11.13Z"/>
      <path class="cls-2" d="M422.95,6.01c5.13-3.09,11.06-4.64,17.77-4.64,8.93,0,15.91,3.23,20.94,9.7-2.25,3.94-5.54,5.91-9.86,5.91-6.93-4.78-14.47-7.17-22.62-7.17-2.21,0-4.18.49-5.91,1.48v28.9h27.58c-1.3,3.76-3.08,6.47-5.33,8.12l-22.25-.9v16.82c0,1.9.69,4.25,2.06,7.07-2.43,3.27-5.94,4.92-10.55,4.96-1.76-2.71-2.64-5.4-2.64-8.07v-21.25l-4.96-.21c.84-2.6,2.5-4.66,4.96-6.17V14.92c0-2.43-1.42-4.18-4.27-5.27,2.35-3.97,5.31-6.77,8.86-8.38,3.41,1.65,5.48,3.23,6.22,4.75Z"/>
      <path class="cls-2" d="M476.72,38.55c.14-3.97.26-8.28.37-12.92,10.16-16.07,18.63-24.1,25.42-24.1,9.49,0,18.91,4.15,28.27,12.45,0,36.07,3.11,54.11,9.33,54.11-1.58,4.99-4.5,7.49-8.75,7.49-6.19,0-10.05-10.25-11.6-30.74h-34.17c-.53,5.2-1.44,10.41-2.74,15.61-2.21,8.82-5.29,14.15-9.23,15.98-1.02-.14-1.79-.67-2.32-1.58,2.5-1.97,4.22-11.97,5.17-30.01-3.52,0-5.27-2.27-5.27-6.8,1.83.35,3.67.53,5.54.53ZM519.38,38.55c-.28-5.91-.42-12.46-.42-19.67-7.45-5.34-14.15-8.02-20.09-8.02-4.78,0-8.09,1.7-9.94,5.09-1.85,3.39-2.77,9.41-2.77,18.06,0,1.51-.04,3.02-.11,4.54h33.33Z"/>
      <path class="cls-2" d="M585.96,74.78c-9.74,0-18.26-.56-25.58-1.69V23.41c0-2.92,2.95-6.03,8.86-9.33v-.95c-8.58-.25-13.45-2.16-14.61-5.75.32-2.92,2.55-5.38,6.7-7.38,1.97,1.83,3.8,2.74,5.48,2.74,2.25,0,5.38-.19,9.39-.58,4.01-.39,7.22-.58,9.65-.58,9.67,0,18.14,2.53,25.42,7.59,9.18,6.4,13.76,15.56,13.76,27.47,0,10.27-3.34,19.02-10.02,26.26-7.35,7.91-17.03,11.87-29.06,11.87ZM594.4,68.08c5.34,0,9.76-2.14,13.24-6.43,3.9-4.89,5.85-11.3,5.85-19.25s-2.51-15.1-7.54-20.94c-5.59-6.54-13.15-9.81-22.68-9.81-3.34,0-6.12.7-8.33,2.11-2.21,1.41-3.32,4.27-3.32,8.6v43.93c6.33,1.2,13.92,1.79,22.78,1.79Z"/>
    </g>
  </g>
</svg>